<svg width="164" height="112" viewBox="0 0 164 112" xmlns="http://www.w3.org/2000/svg" xmlns:xlink="http://www.w3.org/1999/xlink"><title>back-end</title><desc>Created with Sketch.</desc><defs><path d="M8 0h125c4.418 0 8 3.582 8 8v76c0 4.418-3.582 8-8 8h-125c-4.418 0-8-3.582-8-8v-76c0-4.418 3.582-8 8-8z" id="a"/><path d="M0 66h141v18c0 4.418-3.582 8-8 8h-125c-4.418 0-8-3.582-8-8v-18z" id="b"/><path d="M122 79h23c4.418 0 8 3.582 8 8v8.5c0 9.113-7.387 16.5-16.5 16.5h-6c-9.113 0-16.5-7.387-16.5-16.5v-8.5c0-4.418 3.582-8 8-8z" id="c"/><path d="M149 84h9.108c3.259 0 5.9 2.642 5.9 5.9 0 .541-.074 1.079-.221 1.6-1.287 4.571-5.118 7.974-9.809 8.714l-4.978.786v-17z" id="d"/></defs><g transform="translate(-87 -552) translate(87 552)" fill="none"><path stroke="#514CC8" stroke-width="4" fill="#fff" stroke-linecap="round" d="M53 110h35l-7.778-22h-19.444z"/><g id="Rectangle"><use fill="#FFD500" xlink:href="#a"/><path stroke="#514CC8" stroke-width="4" d="M8 2c-3.314 0-6 2.686-6 6v76c0 3.314 2.686 6 6 6h125c3.314 0 6-2.686 6-6v-76c0-3.314-2.686-6-6-6h-125z"/></g><path d="M14 10h113c2.209 0 4 1.791 4 4v47h-121v-47c0-2.209 1.791-4 4-4z" id="Rectangle" fill="#fff"/><g><use fill="#09F0ED" xlink:href="#b"/><path stroke="#514CC8" stroke-width="4" d="M2 68v16c0 3.314 2.686 6 6 6h125c3.314 0 6-2.686 6-6v-16h-137z"/></g><g stroke="#514CC8" stroke-linecap="round" stroke-width="4"><path d="M59.784 28l-7.784 8.5 7.784 8.5M80.216 28l7.784 8.5-7.784 8.5"/><path d="M74.378 27l-8.757 18"/></g><path d="M41.492 110h59.016" stroke="#514CC8" stroke-width="4" stroke-linecap="round"/><path stroke="#514CC8" stroke-width="4" stroke-linecap="round" d="M116 110h36"/><circle fill="#514CC8" cx="70" cy="79" r="4"/><g id="Rectangle-2"><use fill="#fff" xlink:href="#c"/><path stroke="#514CC8" stroke-width="4" d="M122 81c-3.314 0-6 2.686-6 6v8.5c0 8.008 6.492 14.5 14.5 14.5h6c8.008 0 14.5-6.492 14.5-14.5v-8.5c0-3.314-2.686-6-6-6h-23z"/></g><path d="M120 83h26c0 2.761-2.239 5-5 5h-16c-2.761 0-5-2.239-5-5z" fill="#FFD500"/><g><use fill="#fff" xlink:href="#d"/><path stroke="#514CC8" stroke-width="4" d="M151 86v12.66l2.667-.421c3.919-.618 7.12-3.462 8.196-7.281.097-.344.146-.7.146-1.057 0-2.154-1.746-3.9-3.9-3.9h-7.108z"/></g></g></svg>