<svg width="142" height="112" viewBox="0 0 142 112" xmlns="http://www.w3.org/2000/svg" xmlns:xlink="http://www.w3.org/1999/xlink"><title>design</title><desc>Created with Sketch.</desc><defs><path d="M8 0h126c4.418 0 8 3.582 8 8v76c0 4.418-3.582 8-8 8h-126c-4.418 0-8-3.582-8-8v-76c0-4.418 3.582-8 8-8z" id="a"/><path d="M8 0h20v92h-20c-4.418 0-8-3.582-8-8v-76c0-4.418 3.582-8 8-8z" id="b"/><circle id="c" cx="14" cy="46" r="6"/><path d="M7 0h90.067l6.167 7-6.167 7h-90.067c-3.866 0-7-3.134-7-7s3.134-7 7-7z" id="d"/></defs><g fill="none"><g id="Rectangle" transform="translate(-89 -1368) translate(89 1368)"><use fill="#FFD500" xlink:href="#a"/><path stroke="#514CC8" stroke-width="4" d="M8 2c-3.314 0-6 2.686-6 6v76c0 3.314 2.686 6 6 6h126c3.314 0 6-2.686 6-6v-76c0-3.314-2.686-6-6-6h-126z"/></g><g id="Rectangle" transform="translate(-89 -1368) translate(89 1368)"><use fill="#09F0ED" xlink:href="#b"/><path stroke="#514CC8" stroke-width="4" d="M26 90v-88h-18c-3.314 0-6 2.686-6 6v76c0 3.314 2.686 6 6 6h18z"/></g><path d="M10.066 72h7.869M10.066 63h7.869M10.066 81h7.869M10.066 21h7.869M10.066 12h7.869M10.066 30h7.869" stroke="#514CC8" stroke-width="4" stroke-linecap="round"/><g transform="translate(-89 -1368) translate(89 1368)"><use fill="#09F0ED" xlink:href="#c"/><circle stroke="#514CC8" stroke-width="4" cx="14" cy="46" r="4"/></g><path d="M34 10h95c2.209 0 4 1.791 4 4v65c0 2.209-1.791 4-4 4h-95v-73z" fill="#fff"/><path d="M65.924 45.719c.764-4.404 3.719-6.704 8.864-6.901 7.717-.296 9.314 5.921 15.736 5.072 4.281-.566 7.132-2.769 8.553-6.61" stroke="#514CC8" stroke-width="4" stroke-linecap="round"/><g><g transform="translate(33 98)"><use fill="#fff" xlink:href="#d"/><path stroke="#514CC8" stroke-width="4" d="M96.163 12l4.405-5-4.405-5h-89.163c-2.761 0-5 2.239-5 5s2.239 5 5 5h89.163z"/></g><path fill="#fff" d="M95.4 102h25.676v6h-25.676z"/><path d="M41.914 101.409v8.182M129.076 101.409v8.182" stroke="#514CC8" stroke-width="4" stroke-linecap="round"/></g></g></svg>