<svg width="171" height="112" viewBox="0 0 171 112" xmlns="http://www.w3.org/2000/svg" xmlns:xlink="http://www.w3.org/1999/xlink"><title>front-end</title><desc>Created with Sketch.</desc><defs><rect id="a" width="140" height="92" rx="8"/><path d="M0 74h140v10c0 4.418-3.582 8-8 8h-124c-4.418 0-8-3.582-8-8v-10z" id="b"/><rect id="c" x="101" y="62" width="62" height="50" rx="8"/><path d="M124.2 99c0 1.105.895 2 2 2h11.6c1.105 0 2-.895 2-2h29.2c1.105 0 2 .895 2 2v4.5c0 3.59-2.91 6.5-6.5 6.5h-65c-3.59 0-6.5-2.91-6.5-6.5v-4.5c0-1.105.895-2 2-2h29.2z" id="d"/></defs><g transform="translate(-87 -824) translate(87 824)" fill="none"><path stroke="#514CC8" stroke-width="4" fill="#fff" stroke-linecap="round" d="M60 110h19v-22h-19z"/><g id="Rectangle"><use fill="#FFD500" xlink:href="#a"/><rect stroke="#514CC8" stroke-width="4" x="2" y="2" width="136" height="88" rx="8"/></g><path d="M14 10h112c2.209 0 4 1.791 4 4v54h-120v-54c0-2.209 1.791-4 4-4z" id="Rectangle" fill="#fff"/><g stroke="#514CC8" stroke-linecap="round" stroke-width="4"><path d="M34.582 23h69.836M34.566 57h67.923M35.172 46h23.916M69.293 46h33.483M35.284 34h37.31M81.841 34h22.003" id="Line"/></g><g id="Rectangle"><use fill="#09F0ED" xlink:href="#b"/><path stroke="#514CC8" stroke-width="4" d="M2 76v8c0 3.314 2.686 6 6 6h124c3.314 0 6-2.686 6-6v-8h-136z"/></g><path d="M4 78h11v10h-7c-2.209 0-4-1.791-4-4v-6z" id="Rectangle" fill="#09F0ED"/><path d="M41.484 110h58.033" id="Line" stroke="#514CC8" stroke-width="4" stroke-linecap="round"/><g id="Rectangle"><use fill="#FFD500" xlink:href="#c"/><rect stroke="#514CC8" stroke-width="4" x="103" y="64" width="58" height="46" rx="8"/></g><rect fill="#fff" x="109" y="69" width="47" height="27" rx="2"/><path d="M117.254 79h30.492M117.148 87h17.705" stroke="#514CC8" stroke-width="4" stroke-linecap="round"/><g><use fill="#09F0ED" xlink:href="#d"/><path stroke="#514CC8" stroke-width="4" d="M122.735 101h-27.735v4.5c0 2.485 2.015 4.5 4.5 4.5h65c2.485 0 4.5-2.015 4.5-4.5v-4.5h-27.735c-.692 1.196-1.984 2-3.465 2h-11.6c-1.481 0-2.773-.804-3.465-2z"/></g></g></svg>