<svg width="106" height="112" viewBox="0 0 106 112" xmlns="http://www.w3.org/2000/svg" xmlns:xlink="http://www.w3.org/1999/xlink"><title>mobile</title><desc>Created with Sketch.</desc><defs><rect id="a" width="65" height="96" rx="8"/><path d="M0 77.617h65v10.383c0 4.418-3.582 8-8 8h-49c-4.418 0-8-3.582-8-8v-10.383z" id="b"/><path d="M8 0h49c4.418 0 8 3.582 8 8v84c0 4.418-3.582 8-8 8h-49c-4.418 0-8-3.582-8-8v-84c0-4.418 3.582-8 8-8z" id="c"/></defs><g fill="none"><g id="Group-33-Copy"><g id="Rectangle" transform="translate(-107 -1095) translate(107 1095)"><use fill="#FFD500" xlink:href="#a"/><rect stroke="#514CC8" stroke-width="4" x="2" y="2" width="61" height="92" rx="8"/></g><path d="M14.156 10.213h36.688c2.209 0 4 1.791 4 4v57.277h-44.688v-57.277c0-2.209 1.791-4 4-4z" id="Rectangle" fill="#fff"/><g id="Rectangle" transform="translate(-107 -1095) translate(107 1095)"><use fill="#09F0ED" xlink:href="#b"/><path stroke="#514CC8" stroke-width="4" d="M2 79.617v8.383c0 3.314 2.686 6 6 6h49c3.314 0 6-2.686 6-6v-8.383h-61z"/></g><path d="M24.517 86.809h16.983" stroke="#514CC8" stroke-width="4" stroke-linecap="round"/></g><g><g transform="translate(41 12)"><use fill="#FFD500" xlink:href="#c"/><path stroke="#514CC8" stroke-width="4" d="M8 2c-3.314 0-6 2.686-6 6v84c0 3.314 2.686 6 6 6h49c3.314 0 6-2.686 6-6v-84c0-3.314-2.686-6-6-6h-49z"/></g><path d="M63.344 22.204v1.061c0 1.105.895 2 2 2h15.297c1.105 0 2-.895 2-2v-1.061h9.203c2.209 0 4 1.791 4 4v71.592c0 2.209-1.791 4-4 4h-36.688c-2.209 0-4-1.791-4-4v-71.592c0-2.209 1.791-4 4-4h8.188z" fill="#fff"/></g><g stroke="#514CC8" stroke-linecap="round" stroke-width="4"><path d="M64.414 57l-6.414 6.5 6.414 6.5M82.586 57l6.414 6.5-6.414 6.5"/><path d="M77.241 56l-7.483 14"/></g></g></svg>