<?xml version="1.0" encoding="UTF-8"?>
<svg width="64px" height="61px" viewBox="0 0 64 61" version="1.1" xmlns="http://www.w3.org/2000/svg" xmlns:xlink="http://www.w3.org/1999/xlink">
    <!-- Generator: Sketch 50.2 (55047) - http://www.bohemiancoding.com/sketch -->
    <title>community-development</title>
    <desc>Created with Sketch.</desc>
    <defs></defs>
    <g id="Page-1" stroke="none" stroke-width="1" fill="none" fill-rule="evenodd">
        <g id="Slide-1-Copy-5" transform="translate(-1074.000000, -494.000000)" stroke="#73F5E2" stroke-width="2">
            <g id="community-development" transform="translate(1075.000000, 495.014923)">
                <path d="M36,5.5 C36,9 34,12 31,12 C28,12 26,9 26,5.5 C26,2 27,0 31,0 C35,0 36,2 36,5.5 Z" id="Shape"></path>
                <path d="M34,11 L41,15 L41,17 C41,18.66 40,20 39,20 L23,20 C22,20 21,18.66 21,17 L21,15 L28,11" id="Shape"></path>
                <path d="M15,43.5 C15,47 13,50 10,50 C7,50 5,47 5,43.5 C5,40 6,38 10,38 C14,38 15,40 15,43.5 Z" id="Shape"></path>
                <path d="M13,49 L20,53 L20,55 C20,56.66 19,58 18,58 L2,58 C1,58 0,56.66 0,55 L0,53 L7,49" id="Shape"></path>
                <path d="M57,43.5 C57,47 55,50 52,50 C49,50 47,47 47,43.5 C47,40 48,38 52,38 C56,38 57,40 57,43.5 Z" id="Shape"></path>
                <path d="M55,49 L62,53 L62,55 C62,56.66 61,58 60,58 L44,58 C43,58 42,56.66 42,55 L42,53 L49,49" id="Shape"></path>
                <path d="M31,25 L31,35" id="Shape"></path>
                <path d="M31,35 L21,43" id="Shape"></path>
                <path d="M31,35 L41,43" id="Shape"></path>
            </g>
        </g>
    </g>
</svg>