<?xml version="1.0" encoding="UTF-8"?>
<svg width="64px" height="65px" viewBox="0 0 64 65" version="1.1" xmlns="http://www.w3.org/2000/svg" xmlns:xlink="http://www.w3.org/1999/xlink">
    <!-- Generator: Sketch 50.2 (55047) - http://www.bohemiancoding.com/sketch -->
    <title>conference</title>
    <desc>Created with Sketch.</desc>
    <defs></defs>
    <g id="Page-1" stroke="none" stroke-width="1" fill="none" fill-rule="evenodd">
        <g id="Slide-1-Copy-5" transform="translate(-239.000000, -491.000000)" stroke="#73F5E2" stroke-width="2">
            <g id="conference" transform="translate(240.000000, 492.514923)">
                <circle id="Oval" cx="31" cy="5" r="5"></circle>
                <path d="M19,28 L19,21 C19,17.1340068 22.1340068,14 26,14 L36,14 C39.8659932,14 43,17.1340068 43,21 L43,28 L19,28 Z" id="Shape"></path>
                <path d="M25,28 L25,23" id="Shape"></path>
                <path d="M37,28 L37,23" id="Shape"></path>
                <polyline id="Shape" points="39 4 62 4 62 40 48 40"></polyline>
                <polyline id="Shape" points="14 40 0 40 0 4 23 4"></polyline>
                <rect id="Rectangle-path" x="13" y="28" width="36" height="6"></rect>
                <polyline id="Shape" points="19 63 19 34 43 34 43 63"></polyline>
                <rect id="Rectangle-path" x="25" y="40" width="12" height="18"></rect>
                <path d="M31,17 L31,19" id="Shape"></path>
                <path d="M31,21 L31,23" id="Shape"></path>
            </g>
        </g>
    </g>
</svg>