<svg width="19" height="19" xmlns="http://www.w3.org/2000/svg" xmlns:xlink="http://www.w3.org/1999/xlink"><defs><path d="M21 4.215V19.78c0 .535-.446.965-.992.965h-4.589v-6.773h2.339l.35-2.641h-2.693V9.645c0-.766.217-1.286 1.346-1.286H18.2V5.996c-.25-.031-1.101-.105-2.098-.105-2.073 0-3.495 1.23-3.495 3.492v1.949H10.26v2.64h2.347v6.778H3.992c-.546 0-.992-.434-.992-.965V4.215c0-.531.446-.965.992-.965h16.012c.55 0 .996.434.996.965z" id="fb"/></defs><use fill="#73F5E2" fill-rule="nonzero" xlink:href="#fb" transform="translate(-2.771 -2.735)"/></svg>