<svg width="21" height="20" xmlns="http://www.w3.org/2000/svg" xmlns:xlink="http://www.w3.org/1999/xlink"><defs><path d="M8.69 17.765c0 .079-.093.141-.21.141-.133.012-.226-.05-.226-.14 0-.079.093-.141.21-.141.12-.012.226.05.226.14zm-1.255-.175c-.028.078.053.168.174.191.105.04.226 0 .25-.078.024-.078-.053-.168-.174-.203-.104-.027-.221.012-.25.09zm1.783-.067c-.117.028-.198.102-.186.192.012.078.117.129.238.101.117-.027.198-.101.186-.18-.012-.074-.121-.124-.238-.113zM11.87 2.555C6.278 2.555 2 6.668 2 12.085c0 4.333 2.815 8.04 6.835 9.345.516.09.697-.22.697-.473 0-.242-.012-1.578-.012-2.399 0 0-2.822.586-3.415-1.164 0 0-.46-1.136-1.121-1.43 0 0-.924-.613.064-.6 0 0 1.004.077 1.557 1.007.883 1.508 2.363 1.074 2.94.816.092-.625.354-1.058.645-1.316-2.255-.242-4.529-.559-4.529-4.316 0-1.075.307-1.614.952-2.301C6.508 9 6.165 7.953 6.718 6.6 7.56 6.348 9.5 7.656 9.5 7.656a9.76 9.76 0 0 1 2.532-.332 9.76 9.76 0 0 1 2.533.332s1.939-1.312 2.782-1.055c.552 1.356.21 2.399.105 2.653.645.691 1.04 1.23 1.04 2.3 0 3.77-2.375 4.07-4.63 4.317.372.309.686.894.686 1.812 0 1.317-.012 2.946-.012 3.266 0 .254.186.563.698.473C19.266 20.125 22 16.418 22 12.086c0-5.418-4.536-9.531-10.129-9.531zM5.919 16.027c-.052.04-.04.13.029.203.064.063.157.09.21.04.052-.04.04-.13-.029-.204-.064-.062-.157-.09-.21-.039zm-.435-.316c-.028.05.012.113.093.152.064.04.145.027.173-.027.028-.051-.012-.113-.093-.153-.08-.023-.145-.011-.173.028zM6.79 17.1c-.064.051-.04.168.053.243.092.09.21.101.262.039.052-.051.028-.168-.053-.243-.088-.09-.21-.101-.262-.039zm-.46-.574c-.064.04-.064.14 0 .23.065.09.174.13.226.09.065-.05.065-.152 0-.242-.056-.09-.16-.129-.225-.078z" id="github"/></defs><use fill="#73F5E2" fill-rule="nonzero" xlink:href="#github" transform="translate(-1.855 -1.735)"/></svg>