<?xml version="1.0" encoding="UTF-8"?>
<svg width="65px" height="65px" viewBox="0 0 65 65" version="1.1" xmlns="http://www.w3.org/2000/svg" xmlns:xlink="http://www.w3.org/1999/xlink">
    <!-- Generator: Sketch 50.2 (55047) - http://www.bohemiancoding.com/sketch -->
    <title>hackaton</title>
    <desc>Created with Sketch.</desc>
    <defs></defs>
    <g id="Page-1" stroke="none" stroke-width="1" fill="none" fill-rule="evenodd">
        <g id="Slide-1-Copy-5" transform="translate(-447.000000, -492.000000)" stroke="#73F5E2" stroke-width="2">
            <g id="hackaton" transform="translate(448.500000, 493.014923)">
                <path d="M22,14 C17.581722,14 14,17.581722 14,22 L14,33" id="Shape"></path>
                <path d="M40,14 C44.418278,14 48,17.581722 48,22 L48,33" id="Shape"></path>
                <polyline id="Shape" points="48 44 62 44 62 62 52 62"></polyline>
                <polyline id="Shape" points="10 62 0 62 0 44 14 44"></polyline>
                <path d="M48,41 L48,62 L14,62 L14,41 C14,39.3431458 15.3431458,38 17,38 L45,38 C46.6568542,38 48,39.3431458 48,41 Z" id="Shape" stroke-linejoin="round"></path>
                <polyline id="Shape" stroke-linejoin="round" points="48 62 51 56 51 50 48 50"></polyline>
                <polyline id="Shape" stroke-linejoin="round" points="14 62 11 56 11 50 14 50"></polyline>
                <circle id="Oval" stroke-linejoin="round" cx="31" cy="50" r="3"></circle>
                <path d="M9,44 L9,42 C9,32 16,33 23,29" id="Shape"></path>
                <path d="M39,29 C46,33 53,31 53,41 L53,44" id="Shape"></path>
                <polygon id="Shape" points="35 33 31 31 27 33 23 29 25 26 31 27 37 26 39 29"></polygon>
                <path d="M36,22 L36,26" id="Shape"></path>
                <path d="M26,26 L26,22" id="Shape"></path>
                <path d="M40,9 C40,2.92 37.08,0 31,0 C24.92,0 22,2.92 22,9 L22,13 C23,20 26,22 26,22 C29.2,23.3333333 32.8,23.3333333 36,22 C36,22 39,20 40,13 L40,9 Z" id="Shape"></path>
                <polyline id="Shape" points="22 9 26 7 31 9 36 11 40 9"></polyline>
            </g>
        </g>
    </g>
</svg>