<?xml version="1.0" encoding="UTF-8"?>
<svg width="64px" height="61px" viewBox="0 0 64 61" version="1.1" xmlns="http://www.w3.org/2000/svg" xmlns:xlink="http://www.w3.org/1999/xlink">
    <!-- Generator: Sketch 50.2 (55047) - http://www.bohemiancoding.com/sketch -->
    <title>ico-assistance</title>
    <desc>Created with Sketch.</desc>
    <defs></defs>
    <g id="Page-1" stroke="none" stroke-width="1" fill="none" fill-rule="evenodd">
        <g id="Slide-1-Copy-4" transform="translate(-656.000000, -486.000000)">
            <g id="ico-assistance" transform="translate(657.000000, 487.726295)">
                <path d="M18,59 L18,52 C18,42 25,43 32,39" id="Shape" stroke="#73F5E2" stroke-width="2"></path>
                <path d="M48,39 C55,43 62,42 62,52 L62,59" id="Shape" stroke="#73F5E2" stroke-width="2"></path>
                <polygon id="Shape" stroke="#73F5E2" stroke-width="2" points="44 43 40 41 36 43 32 39 34 36 40 37 46 36 48 39"></polygon>
                <path d="M45,32 L45,36" id="Shape" stroke="#73F5E2" stroke-width="2"></path>
                <path d="M35,36 L35,32" id="Shape" stroke="#73F5E2" stroke-width="2"></path>
                <path d="M39,50 L41,50" id="Shape" stroke="#73F5E2" stroke-width="2"></path>
                <path d="M39,46 L41,46" id="Shape" stroke="#73F5E2" stroke-width="2"></path>
                <path d="M49,19 C49,12.92 46.08,10 40,10 C33.92,10 31,12.92 31,19 L31,23 C32,30 35,32 35,32 C38.2,33.3333333 41.8,33.3333333 45,32 C45,32 48,30 49,23 L49,19 Z" id="Shape" stroke="#73F5E2" stroke-width="2"></path>
                <polyline id="Shape" stroke="#73F5E2" stroke-width="2" points="31 19 35 17 40 19 45 21 49 19"></polyline>
                <path d="M21,40 L20,40 C8.954305,40 1.33226763e-15,31.045695 0,20 C-1.33226763e-15,8.954305 8.954305,-1.8522577e-13 20,-1.87224171e-13 C25.7904817,-0.00573349919 31.2849608,2.5583567 35,7" id="Shape" stroke="#73F5E2" stroke-width="2"></path>
                <g id="Group" transform="translate(9.000000, 13.000000)" fill="#73F5E2" fill-rule="nonzero">
                    <path d="M12.12062,6.20865866 C11.3037418,6.20865866 10.5400129,6.17962928 9.88791914,6.12925477 C10.0806657,5.98645583 10.2048944,5.79306894 10.2048944,5.52540097 L10.2048944,3.63315499 C10.2048944,3.50337658 10.164979,3.38363039 10.098809,3.28245446 C10.7024494,3.24168526 11.3901896,3.21841906 12.12062,3.21841906 C14.4980408,3.21841906 16.4274274,3.46367464 16.4504801,3.76762932 C16.450907,3.76570826 16.4517608,3.76357375 16.4517608,3.76207959 L16.4517608,5.65432557 C16.4517608,5.96041477 14.5123421,6.20865866 12.12062,6.20865866 Z" id="Shape"></path>
                    <path d="M10.2034002,8.83496375 C10.147049,8.72781119 10.061882,8.63794818 9.95750427,8.5769011 C9.93530533,8.56388057 9.88813259,8.52183066 9.90093967,8.45096482 C9.90435489,8.43218111 9.90307418,8.41254358 9.90307418,8.39269261 L9.90307418,6.96790502 C10.6704317,7.05627387 11.6858196,7.1100636 12.7989683,7.1100636 C15.1911173,7.1100636 17.1303226,6.86224662 17.1303226,6.55594397 L17.1303226,8.44840341 C17.1303226,8.75470606 15.1911173,9.00273649 12.7989683,9.00273649 C11.3498473,9.00273649 11.0307375,8.96559596 10.3301903,8.90369508 C10.2966784,8.90049331 10.2138593,8.85417437 10.2034002,8.83496375 Z" id="Shape"></path>
                    <path d="M12.2281995,9.86934887 C14.620135,9.86934887 16.5593403,9.62153188 16.5593403,9.31522923 L16.5593403,11.2074752 C16.5593403,11.5135644 14.620135,11.7620218 12.2281995,11.7620218 C11.4247687,11.7620218 10.6729931,11.7338462 10.0281567,11.6849658 C10.1829089,11.5481435 10.2791754,11.3703386 10.2791754,11.1346883 L10.2791754,9.81022285 C10.8650993,9.84821719 11.5270119,9.86934887 12.2281995,9.86934887 Z" id="Shape"></path>
                    <path d="M9.78439524,12.6482717 C10.458688,12.703769 11.2599842,12.7357867 12.12062,12.7357867 C14.5123421,12.7357867 16.4517608,12.4877563 16.4517608,12.1816671 L16.4517608,14.0736996 C16.4517608,14.3800023 14.5123421,14.6282461 12.12062,14.6282461 C11.2066214,14.6282461 10.3590062,14.5919594 9.66016657,14.5300585 C9.68407312,14.4626079 9.69922817,14.389821 9.70307029,14.310844 L9.78439524,12.6482717 Z" id="Shape"></path>
                    <path d="M4.58279993,13.1616221 C6.97174715,13.27838 8.92098464,13.0177559 8.93571278,12.7120936 L8.84328836,14.6019916 C8.82856021,14.9078674 6.77174326,15.3836504 4.38258259,15.2666791 C1.99320846,15.1499212 0.284103712,14.8071184 0.298831854,14.5012426 L0.283803833,12.3963991 C0.268948668,12.7020614 2.19321235,13.0446508 4.58279993,13.1616221 Z" id="Shape"></path>
                    <path d="M0.649105476,11.4574267 L0.649105476,9.56518073 C0.649105476,9.87148338 2.58788385,10.1197273 4.98024629,10.1197273 C7.37218183,10.1197273 9.31138711,9.87148338 9.31138711,9.56518073 L9.31138711,11.4574267 C9.31138711,11.7637294 7.37218183,12.0119733 4.98024629,12.0119733 C2.58788385,12.0117598 0.649105476,11.7635159 0.649105476,11.4574267 Z" id="Shape"></path>
                    <path d="M4.38877267,7.16214573 C6.78049476,7.16214573 8.71991349,6.91411529 8.71991349,6.60781264 L8.71991349,8.50005863 C8.71991349,8.80636128 6.78070821,9.05460517 4.38877267,9.05460517 C1.99641023,9.05460517 0.0574184062,8.80636128 0.0574184062,8.50005863 L0.0574184062,6.60781264 C0.0576318575,6.91411529 1.99641023,7.16214573 4.38877267,7.16214573 Z" id="Shape"></path>
                    <path d="M0.467031497,5.52561443 L0.467031497,3.63336844 C0.467031497,3.93945764 2.40623678,4.18748808 4.79838576,4.18748808 C7.19053475,4.18748808 9.12974003,3.93945764 9.12974003,3.63336844 L9.12974003,5.52561443 C9.12974003,5.83170362 7.1903213,6.08016097 4.79838576,6.08016097 C2.40645023,6.08016097 0.467031497,5.83170362 0.467031497,5.52561443 Z" id="Shape"></path>
                    <path d="M4.60371816,0.18869097 C6.981139,0.18869097 8.91052552,0.43373309 8.93357827,0.737687776 C8.93400517,0.735766714 8.93507243,0.733845652 8.93507243,0.732351493 L8.93507243,2.62438403 C8.93507243,2.93047323 6.99565369,3.17871712 4.60371816,3.17871712 C2.21135572,3.17871712 0.272577341,2.93047323 0.272577341,2.62438403 L0.272577341,0.732351493 C0.272577341,0.733845652 0.273431146,0.735766714 0.273431146,0.737687776 C0.29669734,0.43373309 2.22587041,0.18869097 4.60371816,0.18869097 Z" id="Shape"></path>
                </g>
                <path d="M26,59 L26,53" id="Shape" stroke="#73F5E2" stroke-width="2"></path>
                <path d="M54,59 L54,53" id="Shape" stroke="#73F5E2" stroke-width="2"></path>
            </g>
        </g>
    </g>
</svg>