<svg width="27" height="27" viewBox="0 0 27 27" xmlns="http://www.w3.org/2000/svg"><title>instagram</title><desc>Created with Sketch.</desc><path d="M23.791 0h-20.581c-1.773 0-3.209 1.433-3.209 3.202v20.596c0 1.768 1.437 3.202 3.209 3.202h20.581c1.773 0 3.209-1.434 3.209-3.202v-20.596c0-1.769-1.437-3.202-3.209-3.202zm-4.891 3.51c0-.447.363-.81.81-.81h2.43c.448 0 .81.363.81.81v2.43c0 .447-.363.81-.81.81h-2.43c-.447 0-.81-.363-.81-.81v-2.43zm-5.4 4.59c2.982 0 5.4 2.418 5.4 5.4 0 2.983-2.418 5.4-5.4 5.4s-5.4-2.417-5.4-5.4c0-2.982 2.418-5.4 5.4-5.4zm10.8 15.356c0 .465-.372.844-.831.844h-19.938c-.459 0-.831-.379-.831-.844v-12.656h3.323c-.433.633-.579 1.813-.579 2.563 0 4.518 3.628 8.194 8.087 8.194s8.088-3.676 8.088-8.194c0-.75-.105-1.912-.642-2.563h3.323v12.656z" fill="#fff"/></svg>