<svg width="19" height="19" xmlns="http://www.w3.org/2000/svg" xmlns:xlink="http://www.w3.org/1999/xlink"><defs><path d="M19.714 3.25H4.282C3.575 3.25 3 3.816 3 4.512v14.976c0 .696.575 1.262 1.282 1.262h15.432c.707 0 1.286-.566 1.286-1.262V4.512c0-.696-.579-1.262-1.286-1.262zm-11.274 15H5.772V9.898h2.672v8.352H8.44zM7.106 8.758c-.856 0-1.547-.676-1.547-1.504S6.25 5.75 7.106 5.75c.852 0 1.547.676 1.547 1.504 0 .832-.69 1.504-1.547 1.504zm11.335 9.492h-2.668v-4.063c0-.968-.02-2.214-1.386-2.214-1.39 0-1.604 1.054-1.604 2.144v4.133h-2.667V9.898h2.559v1.141h.036c.358-.656 1.23-1.348 2.527-1.348 2.7 0 3.203 1.73 3.203 3.98v4.579z" id="ln"/></defs><use fill="#73F5E2" fill-rule="nonzero" xlink:href="#ln" transform="translate(-2.084 -2.735)"/></svg>