<svg width="28" height="25" viewBox="0 0 28 25" xmlns="http://www.w3.org/2000/svg"><title>linkedin</title><desc>Created with Sketch.</desc><path d="M.706 8.017h5.457v16.983h-5.457v-16.983zm20.368-.163c3.879 0 6.926 2.443 6.926 7.704v9.443h-6.188v-8.788c0-2.301-.968-3.87-3.097-3.87-1.628 0-2.534 1.059-2.955 2.081-.158.367-.134.877-.134 1.388v9.19h-6.131s.079-15.568 0-16.983h6.131v2.666c.362-1.166 2.321-2.829 5.447-2.829zm-17.74-7.854c2.014 0 3.252 1.268 3.291 2.944 0 1.646-1.277 2.949-3.329 2.949h-.039c-1.975 0-3.256-1.299-3.256-2.945 0-1.677 1.318-2.948 3.334-2.948z" fill="#fff"/></svg>