<?xml version="1.0" encoding="UTF-8"?>
<svg width="64px" height="65px" viewBox="0 0 64 65" version="1.1" xmlns="http://www.w3.org/2000/svg" xmlns:xlink="http://www.w3.org/1999/xlink">
    <!-- Generator: Sketch 50.2 (55047) - http://www.bohemiancoding.com/sketch -->
    <title>talent-acquisition</title>
    <desc>Created with Sketch.</desc>
    <defs></defs>
    <g id="Page-1" stroke="none" stroke-width="1" fill="none" fill-rule="evenodd">
        <g id="Slide-1-Copy-4" transform="translate(-865.000000, -484.000000)" stroke="#73F5E2" stroke-width="2">
            <g id="talent-acquisition" transform="translate(866.000000, 485.726295)">
                <path d="M26,0 C14.4020203,4.4408921e-16 5,9.40202025 5,21 L0,34 L0,36 L5,36 L5,45 C5,48.3137085 7.6862915,51 11,51 L17,51 L17,63" id="Shape"></path>
                <path d="M17,51 L20,51" id="Shape" stroke-linejoin="round"></path>
                <path d="M45,51 L42,51" id="Shape" stroke-linejoin="round"></path>
                <path d="M15,21 C15,9.40202025 24.4020203,-1.33226763e-15 36,-3.55271368e-15 C47.5979797,-5.77315973e-15 57,9.40202025 57,21 L62,34 L62,36 L57,36 L57,45 C57,48.3137085 54.3137085,51 51,51 L45,51 L45,63" id="Shape"></path>
                <path d="M39,63 L39,51 C39,41 47,34.6 47,23 L47,21" id="Shape"></path>
                <polyline id="Shape" stroke-linejoin="round" points="39 15 31 23 27 19"></polyline>
                <path d="M33,12 L35,12" id="Shape" stroke-linejoin="round"></path>
                <path d="M40,21 C40,25.9705627 35.9705627,30 31,30 C26.0294373,30 22,25.9705627 22,21 C22,16.0294373 26.0294373,12 31,12" id="Shape" stroke-linejoin="round"></path>
                <path d="M15,23 L15,25" id="Shape"></path>
                <path d="M47,17 L47,19" id="Shape"></path>
            </g>
        </g>
    </g>
</svg>