<svg width="27" height="22" viewBox="0 0 27 22" xmlns="http://www.w3.org/2000/svg"><title>twitter</title><desc>Created with Sketch.</desc><path d="M27 2.605c-.994.441-2.062.74-3.181.874 1.145-.687 2.023-1.775 2.435-3.071-1.071.636-2.254 1.098-3.519 1.345-1.007-1.079-2.449-1.753-4.043-1.753-3.058 0-5.538 2.487-5.538 5.553 0 .436.047.859.143 1.265-4.603-.232-8.684-2.441-11.419-5.803-.477.823-.748 1.776-.748 2.794 0 1.925.978 3.625 2.463 4.622-.906-.028-1.762-.28-2.51-.693v.068c0 2.693 1.91 4.938 4.445 5.446-.464.13-.953.196-1.46.196-.357 0-.704-.033-1.042-.099.705 2.206 2.749 3.813 5.174 3.855-1.897 1.49-4.286 2.378-6.88 2.378-.447 0-.889-.025-1.322-.077 2.452 1.575 5.363 2.494 8.49 2.494 10.192 0 15.761-8.461 15.761-15.801 0-.241-.004-.482-.015-.719 1.083-.784 2.024-1.762 2.764-2.875" fill="#fff"/></svg>