<svg width="20" height="17" xmlns="http://www.w3.org/2000/svg" xmlns:xlink="http://www.w3.org/1999/xlink"><defs><path d="M19.944 7.926c.013.178.013.356.013.533 0 5.42-4.124 11.663-11.663 11.663-2.322 0-4.48-.673-6.294-1.84.33.038.647.05.99.05 1.916 0 3.68-.647 5.089-1.75a4.106 4.106 0 0 1-3.833-2.843c.254.038.508.063.774.063.368 0 .736-.05 1.079-.14A4.1 4.1 0 0 1 2.812 9.64v-.051c.546.304 1.18.495 1.853.52a4.096 4.096 0 0 1-1.827-3.414c0-.761.203-1.459.558-2.068a11.651 11.651 0 0 0 8.452 4.29 4.627 4.627 0 0 1-.102-.94 4.097 4.097 0 0 1 4.1-4.099 4.09 4.09 0 0 1 2.994 1.295 8.07 8.07 0 0 0 2.602-.99 4.088 4.088 0 0 1-1.802 2.259A8.217 8.217 0 0 0 22 5.807a8.811 8.811 0 0 1-2.056 2.12z" id="tw"/></defs><use fill="#73F5E2" fill-rule="nonzero" xlink:href="#tw" transform="translate(-2 -3.735)"/></svg>