<svg width="20" height="15" xmlns="http://www.w3.org/2000/svg" xmlns:xlink="http://www.w3.org/1999/xlink"><defs><path d="M21.085 7.362a2.398 2.398 0 0 0-1.676-1.708C17.929 5.25 12 5.25 12 5.25s-5.93 0-7.409.404a2.398 2.398 0 0 0-1.676 1.708c-.396 1.507-.396 4.652-.396 4.652s0 3.144.396 4.651c.218.831.86 1.459 1.676 1.681 1.48.404 7.409.404 7.409.404s5.93 0 7.409-.404a2.362 2.362 0 0 0 1.676-1.681c.396-1.507.396-4.651.396-4.651s0-3.145-.396-4.652zm-11.024 7.506v-5.71l4.956 2.856-4.956 2.854z" id="yb"/></defs><use fill="#73F5E2" fill-rule="nonzero" xlink:href="#yb" transform="translate(-1.542 -4.735)"/></svg>