<svg width="208" height="35" viewBox="0 0 208 35" xmlns="http://www.w3.org/2000/svg"><title>footer-logo</title><desc>Created with Sketch.</desc><g transform="translate(0 0)" fill="none"><path d="M47.706 13.145v11.515c0 1.108-.901 2.009-2.01 2.009-1.109 0-2.01-.901-2.01-2.009v-11.515c0-1.108.901-2.009 2.01-2.009 1.109 0 2.01.901 2.01 2.009zm2.376 5.961c0-5.05 2.479-7.687 6.97-7.687 2.414 0 4.274.99 5.248 2.235.277.381.381.671.381 1.084 0 .952-.745 1.697-1.698 1.697-.523 0-.958-.213-1.302-.595-.687-.74-1.429-1.153-2.629-1.153-2.04 0-3.169 1.562-3.169 4.419 0 2.904 1.118 4.45 3.169 4.45.93 0 1.667-.29 2.498-.867l.472-.343c.35-.254.662-.35 1.054-.35.953 0 1.698.745 1.698 1.697 0 .506-.19.929-.595 1.301-1.149 1.049-2.956 1.831-5.127 1.831-4.484 0-6.97-2.662-6.97-7.718zm28.136.031c0 5.024-2.546 7.687-7.033 7.687s-7.033-2.664-7.033-7.687c0-5.05 2.542-7.718 7.033-7.718 4.491 0 7.033 2.668 7.033 7.718zm-3.801 0c0-2.973-1.099-4.45-3.231-4.45-2.133 0-3.231 1.477-3.231 4.45 0 2.946 1.101 4.419 3.231 4.419s3.231-1.473 3.231-4.419zm13.429-7.718c3.827 0 5.442 2.108 5.442 5.628v7.8c0 1.036-.828 1.821-1.885 1.821-1.099 0-1.885-.766-1.885-1.821v-7.176c0-1.849-.779-2.797-2.545-2.797-2.027 0-2.919 1.049-2.919 3.015v6.958c0 1.046-.807 1.821-1.885 1.821-1.078 0-1.885-.776-1.885-1.821v-11.357c0-1.046.838-1.884 1.885-1.884.871 0 1.598.581 1.817 1.378.821-.946 2.177-1.565 3.861-1.565z" fill="#fff" fill-rule="nonzero" opacity=".436"/><path d="M125.97 19.517c0 4.975-2.551 7.613-7.047 7.613-4.496 0-7.047-2.637-7.047-7.613 0-5.002 2.548-7.643 7.047-7.643s7.047 2.642 7.047 7.643zm-3.808 0c0-2.942-1.1-4.404-3.238-4.404s-3.238 1.462-3.238 4.404c0 2.915 1.103 4.373 3.238 4.373s3.238-1.458 3.238-4.373zm6.422-4.033c-.892 0-1.607-.707-1.607-1.589s.715-1.589 1.607-1.589h.456v-1.469c0-3.291 2.33-5.666 6.171-5.666.923 0 1.67.738 1.67 1.651s-.746 1.651-1.67 1.651c-1.541 0-2.394.805-2.394 2.118v1.716h1.894c.892 0 1.607.707 1.607 1.589s-.715 1.589-1.607 1.589h-1.894v9.686c0 1.027-.83 1.805-1.889 1.805-1.1 0-1.889-.758-1.889-1.805v-9.686h-.456zm10.616-5.574c0-1.006.84-1.836 1.857-1.836s1.857.83 1.857 1.836v2.396h1.206c.892 0 1.607.707 1.607 1.589s-.715 1.589-1.607 1.589h-1.206v7.277c0 .532.456.913.988.913.923 0 1.67.738 1.67 1.651s-.746 1.651-1.67 1.651c-2.833 0-4.702-1.792-4.702-4.4v-7.091h-.519c-.892 0-1.607-.707-1.607-1.589s.715-1.589 1.607-1.589h.519v-2.396zm18.327 9.492l-2.369 6.228c-.246.797-.982 1.345-1.817 1.345-.803 0-1.488-.484-1.781-1.209l-4.28-11.021c-.099-.228-.173-.592-.173-.82 0-1.037.84-1.867 1.889-1.867.814 0 1.507.463 1.784 1.216l2.425 7.101 2.505-5.937c.215-.764.897-1.35 1.819-1.35.854 0 1.581.565 1.78 1.235l2.513 6.046 2.395-7.099c.277-.753.973-1.212 1.814-1.212 1.08 0 1.889.768 1.889 1.805 0 .211-.066.482-.169.719l-4.282 11.211c-.275.746-.934 1.181-1.751 1.181-.826 0-1.565-.539-1.815-1.307l-2.372-6.266zm20.738-2.047c0-1.304-.973-2.118-2.644-2.118-1.103 0-1.905.351-3.012 1.138-.356.247-.647.345-1.052.345-.923 0-1.67-.738-1.67-1.651 0-.411.158-.823.458-1.153 1.16-1.269 2.886-2.042 5.275-2.042 3.999 0 6.39 1.98 6.39 5.358v7.908c0 1.006-.84 1.836-1.857 1.836-.837 0-1.555-.563-1.782-1.323-.852 1.033-2.132 1.477-3.97 1.477-3.162 0-5.697-1.961-5.697-4.863 0-2.812 2.613-4.554 5.666-4.554h3.895v-.357zm-3.457 3.35c-1.26 0-1.925.558-1.925 1.562 0 1.087.793 1.685 2.394 1.685 1.673 0 2.988-1.067 2.988-2.581v-.666h-3.457zm16.725-8.8c.986 0 1.795.799 1.795 1.774s-.809 1.774-1.795 1.774c-2.002 0-3.176 1.224-3.176 3.23v6.425c0 1.037-.84 1.867-1.889 1.867-1.048 0-1.889-.83-1.889-1.867v-11.182c0-1.037.84-1.867 1.889-1.867.89 0 1.63.599 1.833 1.414.727-.947 2.003-1.568 3.231-1.568zm9.785 11.831c1.154 0 2.063-.318 2.988-.927.433-.272.699-.371 1.108-.371.923 0 1.67.738 1.67 1.651 0 .508-.235.972-.595 1.288-1.056.982-2.831 1.753-5.17 1.753-4.651 0-7.234-2.602-7.234-7.674 0-4.804 2.56-7.582 6.953-7.582 2.466 0 4.201.853 5.271 2.359.81 1.141 1.182 2.588 1.182 3.987 0 .913-.043 1.321-.259 1.753-.302.601-.897.917-1.848.917h-7.517c.087 1.841 1.396 2.846 3.453 2.846zm-.281-8.622c-1.712 0-2.846.931-3.061 2.599h5.763c-.077-1.529-1.049-2.599-2.702-2.599zm-97.31.046c-1.071 0-1.628.348-1.628.97 0 .568.561.923 2.028 1.39l.393.123.203.063.206.064c.339.105.596.188.847.275 2.621.904 3.947 2.111 3.947 4.39 0 2.867-2.37 4.566-5.872 4.566-2.4 0-4.644-.999-5.642-2.228-.287-.356-.416-.675-.416-1.078 0-.909.772-1.675 1.688-1.675.385 0 .734.127 1.087.414 1.006.813 1.974 1.216 3.283 1.216 1.379 0 2.093-.358 2.093-1.031 0-.663-.588-1.037-2.179-1.534l-.725-.222-.757-.242c-2.624-.887-3.932-2.088-3.932-4.429 0-2.722 2.19-4.32 5.376-4.32 2.175 0 4.23.806 5.181 1.986.253.334.35.589.35 1.042 0 .909-.772 1.675-1.688 1.675-.427 0-.692-.122-1.172-.469-.891-.643-1.635-.946-2.671-.946z" id="Combined-Shape" fill="#fff" fill-rule="nonzero"/><rect fill="#fff" width="35.269" height="35" rx="17.5"/><path d="M12.525 11.347v7.931c0 .781-.724 1.404-1.603 1.404s-1.603-.622-1.603-1.404v-7.931c0-.781.724-1.404 1.603-1.404s1.603.622 1.603 1.404zm-1.603 14.207c-.941 0-1.703-.757-1.703-1.69 0-.934.763-1.69 1.703-1.69.941 0 1.703.757 1.703 1.69 0 .934-.763 1.69-1.703 1.69z" fill="#8A8A8F" fill-rule="nonzero"/><path d="M23.426 13.726c.324.302.626.474.928.474.647 0 1.165-.517 1.165-1.143 0-.259-.086-.496-.216-.69-.863-1.229-2.311-2.027-4.469-2.027-3.432 0-4.964 1.811-4.964 3.945 0 5.196 7.878 3.751 7.878 6.899 0 1.337-.95 1.984-2.914 1.984-1.489 0-2.203-.733-3.11-1.639-.216-.216-.475-.474-.95-.474-.626 0-1.144.517-1.144 1.164 0 .216.065.431.173.604.842 1.358 2.462 2.63 5.03 2.63 3.561 0 5.417-1.639 5.417-4.269 0-5.39-7.878-4.075-7.878-6.899 0-.862.669-1.703 2.46-1.703 1.23 0 1.923.496 2.592 1.143z" stroke="#31313A" fill="#31313A"/></g></svg>