<?xml version="1.0" encoding="UTF-8"?>
<svg width="51px" height="54px" viewBox="0 0 51 54" version="1.1" xmlns="http://www.w3.org/2000/svg" xmlns:xlink="http://www.w3.org/1999/xlink">
    <!-- Generator: Sketch 48.2 (47327) - http://www.bohemiancoding.com/sketch -->
    <title>tel</title>
    <desc>Created with Sketch.</desc>
    <defs>
        <path d="M9.0333443,44.0142896 C14.0559662,50.0057916 21.6272558,54.8284993 28.528085,58.1664714 C31.155465,59.4089973 34.66919,59.8266751 38.5838806,60.0793923 C38.8265703,60.0899221 44.0391233,57.0818713 45.7590548,55.2180825 C46.4132618,54.4283414 47.1096758,53.764959 47.8377449,53.059457 C48.3336761,52.5856123 48.840159,52.090708 49.3255384,51.5852737 C51.5730562,49.2476402 51.5730562,46.2782139 49.3044349,44.0142896 L42.9628472,37.6858315 C41.8865711,36.5696641 40.5992604,35.9799908 39.2486394,35.9799908 C37.8980184,35.9799908 36.600156,36.5696641 35.4922247,37.6753016 L31.7147065,41.4449988 C31.3664995,41.2449311 31.0077408,41.0659231 30.6700856,40.897445 C30.2480165,40.6868474 29.8576026,40.4867797 29.5093956,40.2656522 C26.0695327,38.0859669 22.9462216,35.2428992 19.960083,31.5890307 C18.451186,29.6831223 17.4382203,28.0825804 16.7312546,26.450449 C17.7231169,25.5554091 18.6516688,24.6182498 19.5485656,23.7021502 C19.8651174,23.3757239 20.1922209,23.0492976 20.5193245,22.7228713 C21.658911,21.5856442 22.2709111,20.2694091 22.2709111,18.9321143 C22.2709111,17.5948195 21.6694627,16.2785844 20.5193245,15.1413573 L17.3749099,12.0034529 C17.0055995,11.6349071 16.6573925,11.2768912 16.2986338,10.9083454 C15.6022198,10.1923135 14.8741507,9.45522187 14.1566333,8.7918394 C13.0698054,7.72832147 11.7930465,7.1702378 10.4424255,7.1702378 C9.10235617,7.1702378 7.81504551,7.72832147 6.68601075,8.80236928 L2.73966496,12.7405446 C1.30463013,14.1726083 0.49214717,18.0230496 0.323319543,20.0342568 C0.122836735,22.5508982 -0.46939278,26.2819933 0.733504065,29.5146666 C2.58005624,34.5163599 4.89706742,39.0547159 9.0333443,44.0142896 Z" id="path-1"></path>
    </defs>
    <g id="home-page_04" stroke="none" stroke-width="1" fill="none" fill-rule="evenodd" transform="translate(-536.000000, -4359.000000)">
        <g id="Group-13" transform="translate(536.000000, 4352.000000)" fill-rule="nonzero">
            <g id="tel">
                <use fill="#FFD500" fill-rule="evenodd" xlink:href="#path-1"></use>
                <path stroke="#514CC8" stroke-width="4" d="M10.5676663,42.7313778 C14.8891252,47.8856318 21.6160532,52.6013952 29.3831208,56.3584577 C31.3373483,57.28264 33.9796269,57.7568439 38.2091255,58.0503622 C38.317937,57.9920306 38.4444157,57.9223919 38.5839119,57.8438107 C39.1509957,57.5243605 39.8507832,57.1044942 40.545084,56.6634364 C42.236664,55.5888524 43.6298255,54.5599172 44.2576489,53.8955694 C44.7290271,53.3305341 45.2106966,52.8260865 45.9003776,52.1525043 C46.0365586,52.019502 46.1749639,51.8854 46.4560982,51.6134098 C47.0141906,51.0801723 47.4682987,50.6317998 47.8838086,50.1991225 C49.383894,48.6388902 49.3804438,46.9156418 47.8916876,45.4299679 L41.5231405,39.0740838 C40.8115638,38.3361332 40.0355927,37.9799908 39.2486394,37.9799908 C38.4559904,37.9799908 37.6557233,38.3417829 36.904972,39.0909799 L32.0446785,43.9412107 L30.7183305,43.1791369 C30.474349,43.0389535 30.2594381,42.9276892 29.7771407,42.6870398 C29.172257,42.3852241 28.8123873,42.1922252 28.438904,41.9550449 C24.817402,39.6602631 21.5345377,36.6760685 18.3920124,32.8304632 C16.7689492,30.7803498 15.6730261,29.0392089 14.8960239,27.2453881 L14.3252489,25.9276724 L15.3913713,24.9656215 C16.2001724,24.2357729 16.9353144,23.5124857 18.1128027,22.3098195 C18.3867757,22.0273002 18.6081385,21.8045997 19.1065772,21.307193 C19.8911133,20.5242811 20.2709111,19.7036536 20.2709111,18.9321143 C20.2709111,18.15194 19.895482,17.3371143 19.1065772,16.5570356 L15.9621626,13.4191313 C15.7852371,13.2425721 15.6056218,13.0610348 15.4045967,12.8559679 C15.3140112,12.763485 15.3140112,12.763485 15.2239761,12.6713134 C15.1266778,12.5716529 15.0445188,12.4873022 14.864916,12.302782 C13.9966214,11.4100276 13.3896818,10.8065714 12.7578321,10.2212992 C12.0325443,9.51156708 11.2509805,9.1702378 10.4424255,9.1702378 C9.63700224,9.1702378 8.83490015,9.51854704 8.09875805,10.2180476 L4.15241226,14.1562229 C3.36576561,14.9412409 2.50991633,17.8951655 2.31700342,20.1930793 C2.29993923,20.4072844 2.27990628,20.6344882 2.25299139,20.9237669 C2.24039357,21.0591671 2.19230413,21.56703 2.18176358,21.6798424 C1.98540093,23.7814545 1.9391675,25.0669615 2.0752862,26.4060154 C2.16576604,27.2961017 2.34000647,28.0971319 2.60972466,28.8219934 C4.58972551,34.1851545 6.90860236,38.3435969 10.5676663,42.7313778 Z M37.9093957,58.2037587 C37.9089774,58.2039351 37.9085587,58.2041117 37.9081396,58.2042885 C37.9091281,58.2038715 37.911169,58.2029485 37.9141808,58.2015485 Z M10.5676663,42.7313778 C10.5682056,42.7320245 10.5687449,42.7326713 10.5692843,42.733318 L10.5660433,42.7294419 C10.5665843,42.7300872 10.5671253,42.7307325 10.5676663,42.7313778 Z"></path>
            </g>
        </g>
    </g>
</svg>