<?xml version="1.0" encoding="UTF-8"?>
<svg width="100%" viewBox="0 0 667 82" version="1.1" xmlns="http://www.w3.org/2000/svg" xmlns:xlink="http://www.w3.org/1999/xlink">
    <g id="Page-1" stroke="none" stroke-width="1" fill="none" fill-rule="evenodd">
        <g id="Slide-1" transform="translate(-302.000000, -301.000000)" fill="#73F5E2" fill-rule="nonzero">
            <g id="dappDev-green" transform="translate(301.000000, 301.500000)">
                <path d="M20.2,4.4 C23.2389873,1.64016582 27.1948728,0.10770566 31.3,0.1 L51.3,0.1 C69.9422535,0.292217407 85.0077826,15.3577465 85.2,34 L85.2,46.8 C85.0783697,65.47184 69.97184,80.5783697 51.3,80.7 L31.3,80.7 C27.1948728,80.6922943 23.2389873,79.1598342 20.2,76.4 L19.8,76 C16.7534125,72.9447292 15.0295194,68.8145687 15,64.5 L15,42.4 L2.9,42.4 C1.86536449,42.3653195 1.0346805,41.5346355 1,40.5 C0.979159375,39.9807514 1.16935892,39.4751732 1.52727907,39.0984151 C1.88519922,38.7216571 2.38036566,38.5057974 2.9,38.5 L15,38.5 L15,16.4 C14.9835448,12.0761854 16.714507,7.92908847 19.8,4.9 L20.2,4.4 Z M23.8,6.2 L22.5,7.5 C20.100566,9.78613401 18.7908622,12.9876321 18.9,16.3 L18.9,38.4 L30.9,38.4 C31.9680937,38.4472998 32.8075004,39.3308858 32.8,40.4 C32.7653195,41.4346355 31.9346355,42.2653195 30.9,42.3 L18.9,42.3 L18.9,64.4 C18.8079812,67.7092709 20.1149471,70.9040766 22.5,73.2 L23.8,74.5 L23.8,74.4 C25.9717785,76.0073024 28.5981958,76.8827748 31.3,76.9 L51.3,76.9 C59.2689151,76.9695509 66.9228561,73.7924433 72.5,68.1 L72.6,68.1 C78.1586994,62.4495267 81.2511881,54.8261824 81.2,46.9 L81.2,34.1 C81.2511881,26.1738176 78.1586994,18.5504733 72.6,12.9 L72.5,12.9 C66.9228561,7.20755666 59.2689151,4.03044906 51.3,4.1 L31.3,4.1 C28.5981958,4.1172252 25.9717785,4.99269762 23.8,6.6 L23.8,6.2 Z M150.1,2.3 L150.2,2.3 C152.231001,3.78033938 153.821095,5.78523988 154.8,8.1 L184.1,78.2 L184.1,78.8 C184.127542,79.2776409 183.96369,79.7465791 183.644673,80.1031281 C183.325655,80.4596771 182.877752,80.6744649 182.4,80.7 C181.741159,80.7940453 181.124716,80.3537287 181,79.7 L172.2,58.7 L113.2,58.7 L104.4,79.7 C104.134858,80.3407405 103.492132,80.7424442 102.8,80.7 C102.233477,80.6684322 101.714863,80.3720242 101.400124,79.8999171 C101.085386,79.4278099 101.011246,78.8350861 101.2,78.3 L130.5,8.2 C131.433028,5.74388054 133.156951,3.6681363 135.4,2.3 L135.7,2 C137.783399,0.748590117 140.169669,0.0915012501 142.6,0.1 C145.231717,0.0729196847 147.81051,0.839587981 150,2.3 L150.1,2.3 Z M139,3.9 L137.3,5.1 C135.734111,6.18237812 134.490177,7.66818793 133.7,9.4 L114.7,55.1 L170.8,55.1 L151.6,9.4 C150.98414,7.67941732 149.826025,6.20545299 148.3,5.2 L148.2,5.1 C146.552532,4.0624546 144.646943,3.50810133 142.7,3.5 C141.469212,3.52957579 140.252193,3.76621838 139.1,4.2 L139.1,3.9 L139,3.9 Z M203.3,51.9 L203.3,78.7 C203.2527,79.7680937 202.369114,80.6075004 201.3,80.6 C200.265364,80.5653195 199.43468,79.7346355 199.4,78.7 L199.4,16.3 C199.383545,11.9761854 201.114507,7.82908847 204.2,4.8 L204.6,4.4 C207.638987,1.64016582 211.594873,0.10770566 215.7,0.1 L244,0.1 C258.304175,0.044771525 269.944772,11.595825 270,25.9 C270.055228,40.204175 258.504175,51.8447715 244.2,51.9 L203.3,51.9 Z M244,48 C256.205493,48 266.1,38.105493 266.1,25.9 C266.1,13.694507 256.205493,3.8 244,3.8 L215.7,3.8 C212.998196,3.8172252 210.371779,4.69269762 208.2,6.3 L208.2,6.2 L206.9,7.5 C204.586595,9.84389488 203.292709,13.0067295 203.3,16.3 L203.299969,48 L244,48 Z M288.2,51.9 L288.2,78.7 C288.1527,79.7680937 287.269114,80.6075004 286.2,80.6 C285.165364,80.5653195 284.33468,79.7346355 284.3,78.7 L284.3,16.3 C284.283545,11.9761854 286.014507,7.82908847 289.1,4.8 L289.5,4.4 C292.538987,1.64016582 296.494873,0.10770566 300.6,0.1 L328.9,0.1 C343.204175,0.044771525 354.844772,11.595825 354.9,25.9 C354.955228,40.204175 343.404175,51.8447715 329.1,51.9 L288.2,51.9 Z M328.9,48 C341.105493,48 351,38.105493 351,25.9 C351,13.694507 341.105493,3.8 328.9,3.8 L300.6,3.8 C297.898196,3.8172252 295.271779,4.69269762 293.1,6.3 L293.1,6.2 L291.8,7.5 C289.486595,9.84389488 288.192709,13.0067295 288.2,16.3 L288.199969,48 L328.9,48 Z M421.4,4.4 C424.438987,1.64016582 428.394873,0.10770566 432.5,0.1 L452.5,0.1 C471.142253,0.292217407 486.207783,15.3577465 486.4,34 L486.4,46.8 C486.27837,65.47184 471.17184,80.5783697 452.5,80.7 L432.5,80.7 C428.394873,80.6922943 424.438987,79.1598342 421.4,76.4 L421,76 C417.953412,72.9447292 416.229519,68.8145687 416.2,64.5 L416.2,42.4 L404.1,42.4 C403.065364,42.3653195 402.23468,41.5346355 402.2,40.5 C402.179159,39.9807514 402.369359,39.4751732 402.727279,39.0984151 C403.085199,38.7216571 403.580366,38.5057974 404.1,38.5 L416.2,38.5 L416.2,16.4 C416.183545,12.0761854 417.914507,7.92908847 421,4.9 L421.4,4.4 Z M425,6.2 L423.7,7.5 C421.300566,9.78613401 419.990862,12.9876321 420.1,16.3 L420.1,38.4 L432.1,38.4 C433.168094,38.4472998 434.0075,39.3308858 434,40.4 C433.96532,41.4346355 433.134636,42.2653195 432.1,42.3 L420.1,42.3 L420.1,64.4 C420.007981,67.7092709 421.314947,70.9040766 423.7,73.2 L425,74.5 L425,74.4 C427.171779,76.0073024 429.798196,76.8827748 432.5,76.9 L452.5,76.9 C460.468915,76.9695509 468.122856,73.7924433 473.7,68.1 L473.8,68.1 C479.358699,62.4495267 482.451188,54.8261824 482.4,46.9 L482.4,34.1 C482.451188,26.1738176 479.358699,18.5504733 473.8,12.9 L473.7,12.9 C468.122856,7.20755666 460.468915,4.03044906 452.5,4.1 L432.5,4.1 C429.798196,4.1172252 427.171779,4.99269762 425,6.6 L425,6.2 Z M618.6,78.5 C616.399468,77.0832687 614.688604,75.023248 613.7,72.6 L584.4,2.5 C584.301912,2.28059485 584.267269,2.03809354 584.3,1.8 C584.326152,0.872164141 585.072164,0.126151647 586,0.1 C586.680595,0.100238812 587.301547,0.488334283 587.6,1.1 L616.9,71.3 C617.635293,73.0657761 618.891025,74.565678 620.5,75.6 L622.2,76.8 L622.2,76.5 C623.357285,76.9155403 624.571326,77.1516038 625.8,77.2 C627.746943,77.1918987 629.652532,76.6375454 631.3,75.6 L631.4,75.5 C632.926025,74.494547 634.08414,73.0205827 634.7,71.3 L664.1,1.1 C664.259935,0.469568951 664.851776,0.0468255872 665.5,0.1 C665.977752,0.125535084 666.425655,0.340322892 666.744673,0.696871914 C667.06369,1.05342094 667.227542,1.52235911 667.2,2 L667.2,2.6 L637.9,72.7 C636.894162,74.9986742 635.309204,76.9970986 633.3,78.5 L633,78.6 C630.790137,80.0164599 628.22477,80.7791366 625.6,80.8 C623.16622,80.8349042 620.772845,80.1758589 618.7,78.9 L618.6,78.5 Z M508,3.8 L564.7,3.8 C565.378805,3.80000001 566.006046,3.43786206 566.345448,2.85000001 C566.684851,2.26213796 566.684851,1.53786204 566.345448,0.949999992 C566.006046,0.362137942 565.378805,-1.01149771e-08 564.7,0 L508,0 C506.965364,0.0346804975 506.13468,0.865364493 506.1,1.9 C506.082817,2.40898457 506.277472,2.90230492 506.637584,3.26241639 C506.997695,3.62252786 507.491015,3.81718269 508,3.8 Z M508,80.6 L564.7,80.6 C565.749341,80.6 566.6,79.749341 566.6,78.7 C566.6,77.650659 565.749341,76.8 564.7,76.8 L508,76.8 C506.965364,76.8346805 506.13468,77.6653645 506.1,78.7 C506.082817,79.2089846 506.277472,79.7023049 506.637584,80.0624164 C506.997695,80.4225279 507.491015,80.6171827 508,80.6 Z M508,42.2 L554.3,42.2 C554.978805,42.2 555.606046,41.8378621 555.945448,41.25 C556.284851,40.662138 556.284851,39.937862 555.945448,39.35 C555.606046,38.7621379 554.978805,38.4 554.3,38.4 L508,38.4 C506.965364,38.4346805 506.13468,39.2653645 506.1,40.3 C506.082817,40.8089846 506.277472,41.3023049 506.637584,41.6624164 C506.997695,42.0225279 507.491015,42.2171827 508,42.2 Z" id="Shape"></path>
            </g>
        </g>
    </g>
</svg>