<?xml version="1.0" encoding="UTF-8"?>
<svg width="77px" height="86px" viewBox="0 0 77 86" version="1.1" xmlns="http://www.w3.org/2000/svg" xmlns:xlink="http://www.w3.org/1999/xlink">
    <!-- Generator: Sketch 48.2 (47327) - http://www.bohemiancoding.com/sketch -->
    <title>Group 22</title>
    <desc>Created with Sketch.</desc>
    <defs></defs>
    <g id="home-page_04" stroke="none" stroke-width="1" fill="none" fill-rule="evenodd" transform="translate(-1004.000000, -3761.000000)">
        <g id="Group-22" transform="translate(1004.000000, 3761.000000)">
            <path d="M22.95,77 L22,77 C9.8497355,77 5.04069193e-15,67.1502645 3.55271368e-15,55 L3.55271368e-15,22 C2.06473543e-15,9.8497355 9.8497355,2.23196738e-15 22,0 L55,0 C67.1502645,-2.23196738e-15 77,9.8497355 77,22 L77,55 C77,67.1502645 67.1502645,77 55,77 L40.05,77 L32.9499989,84.4736854 C32.9264557,84.4984676 32.9022812,84.5226422 32.8774989,84.5461853 C32.0766867,85.306957 30.8107728,85.2744977 30.0500011,84.4736854 L22.95,77 Z" id="Combined-Shape" fill="#443EC7"></path>
            <g id="Group-17">
                <g id="Group-20">
                    <path d="M27.34375,24.9631847 L27.34375,42.4118153 C27.34375,44.1310528 25.7621206,45.5 23.84375,45.5 C21.9253794,45.5 20.34375,44.1310528 20.34375,42.4118153 L20.34375,24.9631847 C20.34375,23.2439472 21.9253794,21.875 23.84375,21.875 C25.7621206,21.875 27.34375,23.2439472 27.34375,24.9631847 Z M23.84375,56.21875 C21.7899411,56.21875 20.125,54.5538089 20.125,52.5 C20.125,50.4461911 21.7899411,48.78125 23.84375,48.78125 C25.8975589,48.78125 27.5625,50.4461911 27.5625,52.5 C27.5625,54.5538089 25.8975589,56.21875 23.84375,56.21875 Z" id="Combined-Shape" fill="#09F0ED" fill-rule="nonzero"></path>
                    <path d="M51.1425655,30.1968616 C51.8493585,30.860913 52.5090321,31.2403709 53.1687056,31.2403709 C54.5822918,31.2403709 55.7131607,30.1019971 55.7131607,28.7264622 C55.7131607,28.1572753 55.5246825,27.6355207 55.2419653,27.2086305 C53.3571838,24.5049929 50.1964687,22.75 45.4845148,22.75 C37.9925082,22.75 34.647021,26.7343081 34.647021,31.4300999 C34.647021,42.8612696 51.8456525,39.6833096 51.8456525,46.6084165 C51.8456525,49.5492154 49.7723928,50.9721826 45.4845148,50.9721826 C42.2332666,50.9721826 40.6746158,49.3594864 38.6955952,47.3673324 C38.2243998,46.89301 37.6589654,46.3238231 36.6223355,46.3238231 C35.2558689,46.3238231 34.125,47.4621969 34.125,48.8851641 C34.125,49.3594864 34.2663586,49.8338088 34.5019563,50.2132668 C36.3396183,53.2014979 39.8772897,56 45.4845148,56 C53.2592387,56 57.311519,52.3951498 57.311519,46.6084165 C57.311519,34.7503566 40.1128874,37.6437233 40.1128874,31.4300999 C40.1128874,29.5328103 41.5735931,27.6829529 45.4845148,27.6829529 C48.1703285,27.6829529 49.6818598,28.7738944 51.1425655,30.1968616 Z" id="Software" stroke="#FFFFFF" stroke-width="0.5" fill="#FFFFFF"></path>
                </g>
            </g>
        </g>
    </g>
</svg>