<svg id="Layer_1" data-name="Layer 1" xmlns="http://www.w3.org/2000/svg" width="100%" viewBox="0 0 666.19995 80.79999">
  <title>logo</title>
  <path d="M369.4,348.4a16.557,16.557,0,0,1,11.1-4.3h20A34.25481,34.25481,0,0,1,434.4,378v12.8a34.12323,34.12323,0,0,1-33.9,33.9h-20a16.55718,16.55718,0,0,1-11.1-4.3L369,420a16.44625,16.44625,0,0,1-4.8-11.5V386.4H352.1a1.96692,1.96692,0,0,1-1.9-1.9,1.9231,1.9231,0,0,1,1.9-2h12.1V360.4a16.02908,16.02908,0,0,1,4.8-11.5Zm3.6,1.8-1.3,1.3a11.62628,11.62628,0,0,0-3.6,8.8v22.1h12a1.98784,1.98784,0,0,1,1.9,2,1.96692,1.96692,0,0,1-1.9,1.9h-12v22.1a11.761,11.761,0,0,0,3.6,8.8l1.3,1.3v-0.1a12.74444,12.74444,0,0,0,7.5,2.5h20a29.32116,29.32116,0,0,0,21.2-8.8h0.1a29.9541,29.9541,0,0,0,8.6-21.2v-12.8a29.95415,29.95415,0,0,0-8.6-21.2h-0.1a29.32111,29.32111,0,0,0-21.2-8.8h-20a12.74444,12.74444,0,0,0-7.5,2.5v-0.4Zm126.3-3.9h0.1a13.85473,13.85473,0,0,1,4.6,5.8l29.3,70.1v0.6a1.79861,1.79861,0,0,1-1.7,1.9,1.24563,1.24563,0,0,1-1.4-1l-8.8-21h-59l-8.8,21a1.62385,1.62385,0,0,1-1.6,1,1.80278,1.80278,0,0,1-1.6-2.4l29.3-70.1a11.83319,11.83319,0,0,1,4.9-5.9l0.3-.3a13.31041,13.31041,0,0,1,6.9-1.9,13.09307,13.09307,0,0,1,7.4,2.2H499.3Zm-11.1,1.6-1.7,1.2a10.5518,10.5518,0,0,0-3.6,4.3l-19,45.7H520l-19.2-45.7a8.43326,8.43326,0,0,0-3.3-4.2l-0.1-.1a10.402,10.402,0,0,0-5.5-1.6,10.96531,10.96531,0,0,0-3.6.7v-0.3h-0.1Zm64.3,48v26.8a1.98786,1.98786,0,0,1-2,1.9,1.967,1.967,0,0,1-1.9-1.9V360.3a16.02908,16.02908,0,0,1,4.8-11.5l0.4-.4a16.55707,16.55707,0,0,1,11.1-4.3h28.3a25.90038,25.90038,0,0,1,.2,51.8H552.5Zm40.7-3.9a22.1,22.1,0,0,0,0-44.2H564.9a12.74444,12.74444,0,0,0-7.5,2.5v-0.1l-1.3,1.3a12.48773,12.48773,0,0,0-3.6,8.8V392h40.7Zm44.2,3.9v26.8a1.98786,1.98786,0,0,1-2,1.9,1.967,1.967,0,0,1-1.9-1.9V360.3a16.02908,16.02908,0,0,1,4.8-11.5l0.4-.4a16.55707,16.55707,0,0,1,11.1-4.3h28.3a25.90038,25.90038,0,0,1,.2,51.8H637.4Zm40.7-3.9a22.1,22.1,0,0,0,0-44.2H649.8a12.74444,12.74444,0,0,0-7.5,2.5v-0.1l-1.3,1.3a12.48773,12.48773,0,0,0-3.6,8.8V392h40.7ZM770.6,348.4a16.55707,16.55707,0,0,1,11.1-4.3h20A34.25486,34.25486,0,0,1,835.6,378v12.8a34.12324,34.12324,0,0,1-33.9,33.9h-20a16.5571,16.5571,0,0,1-11.1-4.3l-0.4-.4a16.44625,16.44625,0,0,1-4.8-11.5V386.4H753.3a1.967,1.967,0,0,1-1.9-1.9,1.92313,1.92313,0,0,1,1.9-2h12.1V360.4a16.02908,16.02908,0,0,1,4.8-11.5Zm3.6,1.8-1.3,1.3a11.62614,11.62614,0,0,0-3.6,8.8v22.1h12a1.98786,1.98786,0,0,1,1.9,2,1.967,1.967,0,0,1-1.9,1.9h-12v22.1a11.76111,11.76111,0,0,0,3.6,8.8l1.3,1.3v-0.1a12.74444,12.74444,0,0,0,7.5,2.5h20a29.32116,29.32116,0,0,0,21.2-8.8h0.1a29.9542,29.9542,0,0,0,8.6-21.2v-12.8a29.95425,29.95425,0,0,0-8.6-21.2h-0.1a29.32106,29.32106,0,0,0-21.2-8.8h-20a12.74444,12.74444,0,0,0-7.5,2.5v-0.4Zm193.6,72.3a12.74129,12.74129,0,0,1-4.9-5.9l-29.3-70.1a1.28568,1.28568,0,0,1-.1-0.7,1.75027,1.75027,0,0,1,1.7-1.7,1.7813,1.7813,0,0,1,1.6,1l29.3,70.2a9.4139,9.4139,0,0,0,3.6,4.3l1.7,1.2v-0.3a12.05689,12.05689,0,0,0,3.6.7,10.40189,10.40189,0,0,0,5.5-1.6l0.1-.1a8.43309,8.43309,0,0,0,3.3-4.2l29.4-70.2a1.33243,1.33243,0,0,1,1.4-1,1.79861,1.79861,0,0,1,1.7,1.9v0.6l-29.3,70.1a14.5041,14.5041,0,0,1-4.6,5.8l-0.3.1a13.9183,13.9183,0,0,1-7.4,2.2,12.81311,12.81311,0,0,1-6.9-1.9ZM857.2,347.8h56.7a1.9,1.9,0,1,0,0-3.8H857.2a1.967,1.967,0,0,0-1.9,1.9A1.83874,1.83874,0,0,0,857.2,347.8Zm0,76.8h56.7a1.9,1.9,0,1,0,0-3.8H857.2a1.967,1.967,0,0,0-1.9,1.9A1.83874,1.83874,0,0,0,857.2,424.6Zm0-38.4h46.3a1.9,1.9,0,1,0,0-3.8H857.2a1.967,1.967,0,0,0-1.9,1.9A1.83874,1.83874,0,0,0,857.2,386.2Z" transform="translate(-350.20001 -344)" style="fill: #73F5E2"/>
</svg>
