<svg width="100%" height="100%" viewBox="0 0 240 41" xmlns="http://www.w3.org/2000/svg">
  <title>logo</title>
  <g transform="translate(-55 -28) translate(55 28)" fill="none">
    <path
      d="M55.149 15.398v13.489c0 1.298-1.041 2.353-2.324 2.353-1.282 0-2.324-1.055-2.324-2.353v-13.489c0-1.298 1.041-2.353 2.324-2.353 1.282 0 2.324 1.055 2.324 2.353zm2.747 6.983c0-5.915 2.866-9.005 8.058-9.005 2.791 0 4.94 1.16 6.067 2.619.32.446.441.786.441 1.269 0 1.115-.861 1.987-1.963 1.987-.605 0-1.108-.25-1.505-.696-.794-.866-1.652-1.35-3.04-1.35-2.358 0-3.663 1.83-3.663 5.177 0 3.401 1.292 5.213 3.663 5.213 1.075 0 1.927-.34 2.888-1.016l.546-.401c.404-.298.765-.411 1.219-.411 1.102 0 1.963.872 1.963 1.987 0 .593-.22 1.089-.688 1.524-1.328 1.229-3.417 2.145-5.927 2.145-5.184 0-8.058-3.118-8.058-9.042zm32.526.037c0 5.885-2.943 9.005-8.13 9.005-5.187 0-8.13-3.12-8.13-9.005 0-5.916 2.939-9.042 8.13-9.042 5.192 0 8.13 3.125 8.13 9.042zm-4.395 0c0-3.483-1.27-5.213-3.736-5.213s-3.736 1.731-3.736 5.213c0 3.451 1.273 5.177 3.736 5.177s3.736-1.726 3.736-5.177zm15.524-9.042c4.424 0 6.291 2.469 6.291 6.593v9.138c0 1.214-.957 2.134-2.179 2.134-1.27 0-2.179-.897-2.179-2.134v-8.407c0-2.166-.901-3.276-2.942-3.276-2.344 0-3.375 1.229-3.375 3.532v8.151c0 1.225-.933 2.134-2.179 2.134-1.246 0-2.179-.909-2.179-2.134v-13.304c0-1.225.969-2.207 2.179-2.207 1.007 0 1.847.68 2.101 1.614.949-1.108 2.516-1.834 4.463-1.834z"
      fill="#09F0ED" class="word-icon" fill-rule="nonzero"/>
    <path
      d="M145.624 22.863c0 5.828-2.949 8.918-8.146 8.918-5.197 0-8.146-3.09-8.146-8.918 0-5.859 2.945-8.954 8.146-8.954 5.201 0 8.146 3.095 8.146 8.954zm-4.403 0c0-3.446-1.272-5.159-3.744-5.159-2.472 0-3.744 1.712-3.744 5.159 0 3.415 1.275 5.123 3.744 5.123 2.469 0 3.744-1.708 3.744-5.123zm7.423-4.724c-1.031 0-1.858-.828-1.858-1.861 0-1.034.827-1.861 1.858-1.861h.527v-1.721c0-3.855 2.694-6.638 7.134-6.638 1.067 0 1.93.864 1.93 1.934 0 1.07-.863 1.934-1.93 1.934-1.782 0-2.768.943-2.768 2.481v2.011h2.19c1.031 0 1.858.828 1.858 1.861 0 1.034-.827 1.861-1.858 1.861h-2.19v11.346c0 1.203-.959 2.115-2.183 2.115-1.272 0-2.183-.888-2.183-2.115v-11.346h-.527zm12.273-6.529c0-1.178.971-2.151 2.147-2.151 1.176 0 2.147.973 2.147 2.151v2.807h1.395c1.031 0 1.858.828 1.858 1.861 0 1.034-.827 1.861-1.858 1.861h-1.395v8.524c0 .623.528 1.07 1.142 1.07 1.067 0 1.93.864 1.93 1.934 0 1.07-.863 1.934-1.93 1.934-3.274 0-5.436-2.099-5.436-5.154v-8.307h-.6c-1.031 0-1.858-.828-1.858-1.861 0-1.034.827-1.861 1.858-1.861h.6v-2.807zm21.187 11.119l-2.739 7.296c-.284.934-1.135 1.576-2.101 1.576-.928 0-1.72-.566-2.059-1.416l-4.948-12.91c-.114-.267-.2-.694-.2-.961 0-1.214.971-2.187 2.183-2.187.941 0 1.742.542 2.063 1.425l2.803 8.318 2.895-6.955c.248-.895 1.037-1.582 2.102-1.582.987 0 1.828.662 2.057 1.447l2.905 7.082 2.768-8.316c.32-.882 1.125-1.42 2.097-1.42 1.248 0 2.183.9 2.183 2.115 0 .247-.077.565-.196.842l-4.95 13.133c-.318.874-1.08 1.383-2.025 1.383-.955 0-1.809-.631-2.098-1.531l-2.742-7.34zm23.973-2.398c0-1.527-1.125-2.481-3.057-2.481-1.275 0-2.202.411-3.482 1.333-.412.289-.747.404-1.217.404-1.067 0-1.93-.864-1.93-1.934 0-.481.182-.964.53-1.351 1.341-1.487 3.337-2.392 6.099-2.392 4.623 0 7.387 2.32 7.387 6.276v9.264c0 1.178-.971 2.151-2.147 2.151-.968 0-1.797-.659-2.06-1.55-.985 1.21-2.464 1.73-4.589 1.73-3.655 0-6.586-2.297-6.586-5.697 0-3.294 3.02-5.335 6.55-5.335h4.503v-.418zm-3.997 3.924c-1.456 0-2.226.653-2.226 1.83 0 1.273.917 1.974 2.768 1.974 1.934 0 3.455-1.25 3.455-3.024v-.78h-3.997zm19.335-10.308c1.14 0 2.075.936 2.075 2.078s-.935 2.078-2.075 2.078c-2.314 0-3.671 1.433-3.671 3.784v7.527c0 1.214-.971 2.187-2.183 2.187-1.212 0-2.183-.973-2.183-2.187v-13.099c0-1.214.971-2.187 2.183-2.187 1.029 0 1.885.701 2.119 1.656.84-1.109 2.316-1.837 3.735-1.837zm11.312 13.859c1.335 0 2.385-.372 3.454-1.086.5-.319.808-.434 1.28-.434 1.067 0 1.93.864 1.93 1.934 0 .595-.271 1.138-.688 1.509-1.221 1.151-3.273 2.053-5.977 2.053-5.377 0-8.363-3.048-8.363-8.99 0-5.627 2.96-8.881 8.038-8.881 2.85 0 4.857.999 6.094 2.763.937 1.336 1.366 3.031 1.366 4.671 0 1.069-.049 1.547-.3 2.053-.349.704-1.037 1.074-2.136 1.074h-8.69c.101 2.156 1.614 3.334 3.991 3.334zm-.325-10.1c-1.979 0-3.29 1.09-3.538 3.044h6.662c-.089-1.791-1.212-3.044-3.124-3.044zm-112.493.053c-1.238 0-1.882.408-1.882 1.136 0 .666.648 1.082 2.344 1.629l.455.144.235.073.239.075c.392.124.688.22.979.322 3.03 1.059 4.562 2.473 4.562 5.142 0 3.358-2.74 5.349-6.788 5.349-2.774 0-5.368-1.17-6.522-2.609-.332-.417-.481-.791-.481-1.262 0-1.065.892-1.962 1.951-1.962.445 0 .848.149 1.257.485 1.162.952 2.282 1.425 3.795 1.425 1.595 0 2.42-.419 2.42-1.208 0-.777-.68-1.215-2.519-1.797l-.838-.261c-.347-.108-.614-.195-.875-.284-3.033-1.04-4.546-2.446-4.546-5.188 0-3.188 2.532-5.061 6.215-5.061 2.515 0 4.89.945 5.989 2.327.292.392.405.69.405 1.221 0 1.065-.892 1.962-1.951 1.962-.493 0-.8-.143-1.354-.549-1.03-.753-1.89-1.108-3.088-1.108z"
      id="Combined-Shape" fill="#ffffff" class="word-software" fill-rule="nonzero" opacity=".96"/>
    <rect fill="#443EC7" width="40.772" height="41" rx="20.386"/>
    <path
      d="M14.479 13.292v9.291c0 .915-.837 1.644-1.853 1.644s-1.853-.729-1.853-1.644v-9.291c0-.915.837-1.644 1.853-1.644s1.853.729 1.853 1.644zm-1.853 16.643c-1.088 0-1.969-.887-1.969-1.98 0-1.094.882-1.98 1.969-1.98 1.088 0 1.969.887 1.969 1.98 0 1.094-.882 1.98-1.969 1.98z"
      fill="#09F0ED" fill-rule="nonzero"/>
    <path
      d="M27.08 16.079c.374.354.724.556 1.073.556.749 0 1.347-.606 1.347-1.339 0-.303-.1-.581-.25-.808-.998-1.44-2.672-2.374-5.167-2.374-3.967 0-5.739 2.122-5.739 4.622 0 6.087 9.107 4.395 9.107 8.082 0 1.566-1.098 2.324-3.368 2.324-1.722 0-2.547-.859-3.595-1.919-.25-.253-.549-.556-1.098-.556-.724 0-1.322.606-1.322 1.364 0 .253.075.505.2.707.973 1.591 2.846 3.081 5.815 3.081 4.117 0 6.263-1.919 6.263-5.001 0-6.314-9.107-4.773-9.107-8.082 0-1.01.773-1.995 2.844-1.995 1.422 0 2.223.581 2.996 1.339z"
      stroke="#fff" stroke-width=".5" fill="#fff"/>
  </g>
</svg>