<?xml version="1.0" encoding="UTF-8"?>
<svg width="70px" height="24px" viewBox="0 0 70 24" version="1.1" xmlns="http://www.w3.org/2000/svg" xmlns:xlink="http://www.w3.org/1999/xlink">
    <!-- Generator: Sketch 48.2 (47327) - http://www.bohemiancoding.com/sketch -->
    <title>quotes</title>
    <desc>Created with Sketch.</desc>
    <defs></defs>
    <g id="Mobile_04" stroke="none" stroke-width="1" fill="none" fill-rule="evenodd" transform="translate(-125.000000, -2016.000000)">
        <path d="M125,2029.71951 C125,2025.1829 126.274142,2021.76221 128.822464,2019.45732 C131.370786,2017.15243 134.975822,2016 139.637681,2016 L139.637681,2020.5 C138.164244,2020.5 136.902179,2020.66463 135.851449,2020.9939 C134.800719,2021.32317 133.937201,2021.76829 133.26087,2022.32927 C132.705311,2022.71951 132.228263,2023.26219 131.82971,2023.95732 C131.431157,2024.65244 131.183575,2025.42683 131.086957,2026.28049 C131.739134,2025.93902 132.43961,2025.76829 133.188406,2025.76829 C135.169092,2025.76829 136.799511,2026.45121 138.07971,2027.81707 C139.35991,2029.18293 140,2030.84145 140,2032.79268 C140,2034.79269 139.335755,2036.4939 138.007246,2037.89634 C136.678737,2039.29879 134.891316,2040 132.644928,2040 C130.422694,2040 128.593002,2039.16464 127.155797,2037.4939 C125.718592,2035.82316 125,2033.23172 125,2029.71951 Z M142,2029.71951 C142,2025.23168 143.249988,2021.82318 145.75,2019.4939 C148.250012,2017.16462 151.879203,2016 156.637681,2016 L156.637681,2020.5 C155.164244,2020.5 153.902179,2020.66463 152.851449,2020.9939 C151.800719,2021.32317 150.937201,2021.76829 150.26087,2022.32927 C149.705311,2022.76829 149.228263,2023.33536 148.82971,2024.03049 C148.431157,2024.72561 148.183575,2025.47561 148.086957,2026.28049 C148.183575,2026.18293 148.407003,2026.07317 148.757246,2025.95122 C149.10749,2025.82927 149.632847,2025.76829 150.333333,2025.76829 C151.275367,2025.76829 152.150962,2025.95122 152.960145,2026.31707 C153.769328,2026.68293 154.469804,2027.18292 155.061594,2027.81707 C155.653385,2028.45122 156.124394,2029.20122 156.474638,2030.06707 C156.824881,2030.93293 157,2031.84146 157,2032.79268 C157,2034.74391 156.329717,2036.43292 154.98913,2037.85976 C153.648544,2039.28659 151.867161,2040 149.644928,2040 C147.422694,2040 145.593002,2039.16464 144.155797,2037.4939 C142.718592,2035.82316 142,2033.23172 142,2029.71951 Z M163,2023.20732 C163,2021.25609 163.670283,2019.56708 165.01087,2018.14024 C166.351456,2016.71341 168.132839,2016 170.355072,2016 C172.577306,2016 174.406998,2016.84145 175.844203,2018.52439 C177.281408,2020.20733 178,2022.79267 178,2026.28049 C178,2030.71953 176.76209,2034.11584 174.286232,2036.46951 C171.810374,2038.82318 168.169106,2040 163.362319,2040 L163.362319,2035.57317 C164.835756,2035.57317 166.097821,2035.39634 167.148551,2035.04268 C168.199281,2034.68902 169.074876,2034.24391 169.775362,2033.70732 C171.055562,2032.65853 171.768115,2031.35367 171.913043,2029.79268 C171.623187,2030.08537 170.910634,2030.2439 169.775362,2030.26829 C167.794676,2030.26829 166.170296,2029.57928 164.902174,2028.20122 C163.634052,2026.82316 163,2025.15855 163,2023.20732 Z M180,2023.20732 C180,2021.25609 180.670283,2019.56708 182.01087,2018.14024 C183.351456,2016.71341 185.132839,2016 187.355072,2016 C189.577306,2016 191.406998,2016.84145 192.844203,2018.52439 C194.281408,2020.20733 195,2022.79267 195,2026.28049 C195,2030.76832 193.737935,2034.17682 191.213768,2036.5061 C188.689601,2038.83538 185.072487,2040 180.362319,2040 L180.362319,2035.57317 C181.835756,2035.57317 183.097821,2035.39634 184.148551,2035.04268 C185.199281,2034.68902 186.062799,2034.24391 186.73913,2033.70732 C187.439617,2033.14634 187.952897,2032.5183 188.278986,2031.82317 C188.605074,2031.12805 188.816425,2030.42683 188.913043,2029.71951 C188.816425,2029.81707 188.58092,2029.93293 188.206522,2030.06707 C187.832124,2030.20122 187.342998,2030.26829 186.73913,2030.26829 C184.806754,2030.26829 183.200489,2029.57928 181.92029,2028.20122 C180.64009,2026.82316 180,2025.15855 180,2023.20732 Z" id="quotes" fill="#FFD500"></path>
    </g>
</svg>