<?xml version="1.0" encoding="UTF-8"?>
<svg width="100px" height="81px" viewBox="0 0 100 81" version="1.1" xmlns="http://www.w3.org/2000/svg" xmlns:xlink="http://www.w3.org/1999/xlink">
    <!-- Generator: Sketch 48.2 (47327) - http://www.bohemiancoding.com/sketch -->
    <title>design</title>
    <desc>Created with Sketch.</desc>
    <defs>
        <path d="M8,14 L92,14 C96.418278,14 100,17.581722 100,22 L100,73 C100,77.418278 96.418278,81 92,81 L8,81 C3.581722,81 5.41083001e-16,77.418278 0,73 L0,22 C-5.41083001e-16,17.581722 3.581722,14 8,14 Z" id="path-1"></path>
        <path d="M39.25,0 L60.75,0 C65.168278,-8.11624501e-16 68.75,3.581722 68.75,8 L68.75,17.1875 L31.25,17.1875 L31.25,8 C31.25,3.581722 34.831722,8.11624501e-16 39.25,0 Z" id="path-2"></path>
        <path d="M41.5,4.6875 L58.5,4.6875 C60.709139,4.6875 62.5,6.478361 62.5,8.6875 L62.5,17.1875 L37.5,17.1875 L37.5,8.6875 C37.5,6.478361 39.290861,4.6875 41.5,4.6875 Z" id="path-3"></path>
    </defs>
    <g id="Mobile_04" stroke="none" stroke-width="1" fill="none" fill-rule="evenodd" transform="translate(-110.000000, -2503.000000)">
        <g id="Group" transform="translate(16.000000, 2384.000000)">
            <g id="design" transform="translate(94.000000, 119.000000)">
                <g id="Rectangle">
                    <use fill="#FFD500" fill-rule="evenodd" xlink:href="#path-1"></use>
                    <path stroke="#514CC8" stroke-width="4" d="M8,16 C4.6862915,16 2,18.6862915 2,22 L2,73 C2,76.3137085 4.6862915,79 8,79 L92,79 C95.3137085,79 98,76.3137085 98,73 L98,22 C98,18.6862915 95.3137085,16 92,16 L8,16 Z"></path>
                </g>
                <g id="Rectangle">
                    <use fill="#09F0ED" fill-rule="evenodd" xlink:href="#path-2"></use>
                    <path stroke="#514CC8" stroke-width="4" d="M33.25,15.1875 L66.75,15.1875 L66.75,8 C66.75,4.6862915 64.0637085,2 60.75,2 L39.25,2 C35.9362915,2 33.25,4.6862915 33.25,8 L33.25,15.1875 Z"></path>
                </g>
                <g id="Rectangle">
                    <use fill="#FFFFFF" fill-rule="evenodd" xlink:href="#path-3"></use>
                    <path stroke="#514CC8" stroke-width="4" d="M39.5,15.1875 L60.5,15.1875 L60.5,8.6875 C60.5,7.5829305 59.6045695,6.6875 58.5,6.6875 L41.5,6.6875 C40.3954305,6.6875 39.5,7.5829305 39.5,8.6875 L39.5,15.1875 Z"></path>
                </g>
                <path d="M10.9444444,21.2101064 L89.0555556,21.2101064 C91.2646946,21.2101064 93.0555556,23.0009674 93.0555556,25.2101064 L93.0555556,74.1023936 L6.94444444,74.1023936 L6.94444444,25.2101064 C6.94444444,23.0009674 8.73530545,21.2101064 10.9444444,21.2101064 Z" id="Rectangle" fill="#FFFFFF"></path>
                <path d="M23.1109119,62.5 L77.6703381,62.5" id="Line" stroke="#514CC8" stroke-width="4" stroke-linecap="round"></path>
                <rect id="Rectangle-6" stroke="#514CC8" stroke-width="4" x="62.15625" y="35.59375" width="6.15625" height="20.21875" rx="3.078125"></rect>
                <rect id="Rectangle-6" stroke="#514CC8" stroke-width="4" x="46.53125" y="41.84375" width="6.9375" height="13.96875" rx="3.46875"></rect>
                <rect id="Rectangle-6" stroke="#514CC8" stroke-width="4" x="30.90625" y="48.09375" width="6.9375" height="7.71875" rx="3.46875"></rect>
            </g>
        </g>
    </g>
</svg>