<?xml version="1.0" encoding="UTF-8"?>
<svg width="1360px" height="488px" viewBox="0 0 1360 488" version="1.1" xmlns="http://www.w3.org/2000/svg" xmlns:xlink="http://www.w3.org/1999/xlink">
    <!-- Generator: Sketch 48.2 (47327) - http://www.bohemiancoding.com/sketch -->
    <title>bottom</title>
    <defs>
        <rect id="path-1" x="0" y="0" width="1360" height="488" rx="4"></rect>
        <linearGradient x1="78.4242156%" y1="-6.03474937%" x2="1.70834%" y2="-6.03474937%" id="linearGradient-3">
            <stop stop-color="#DB2DAA" offset="0%"></stop>
            <stop stop-color="#09F0ED" offset="100%"></stop>
        </linearGradient>
        <linearGradient x1="78.4242156%" y1="-6.03474937%" x2="0%" y2="-6.03474937%" id="linearGradient-4">
            <stop stop-color="#DB2DAA" offset="0%"></stop>
            <stop stop-color="#FFD500" offset="100%"></stop>
        </linearGradient>
        <linearGradient x1="79.7203947%" y1="50%" x2="-11.6075694%" y2="50%" id="linearGradient-5">
            <stop stop-color="#DB2DAA" offset="0%"></stop>
            <stop stop-color="#09F0ED" offset="100%"></stop>
        </linearGradient>
    </defs>
    <g id="home-page_03-copy" stroke="none" stroke-width="1" fill="none" fill-rule="evenodd" transform="translate(0.000000, -1152.000000)">
        <g id="Group-18" transform="translate(0.000000, 1152.000000)">
            <g id="Rectangle-16-+-Rectangle-16-Copy-2-+-Rectangle-16-Copy-2-+-Rectangle-16-Copy-3-+-Rectangle-16-Copy-+-Rectangle-16-Copy-3-Mask">
                <g id="bottom">
                    <mask id="mask-2" fill="white">
                        <use xlink:href="#path-1"></use>
                    </mask>
                    <use id="Mask" fill="#09F0ED" xlink:href="#path-1"></use>
                    <rect id="Rectangle-16" fill="url(#linearGradient-3)" opacity="0.189254982" mask="url(#mask-2)" x="-176" y="464" width="1235" height="24" rx="12"></rect>
                    <path d="M-263,263 L264,263 C270.627417,263 276,268.372583 276,275 L276,275 C276,281.627417 270.627417,287 264,287 L-263,287 C-269.627417,287 -275,281.627417 -275,275 L-275,275 C-275,268.372583 -269.627417,263 -263,263 Z" id="Rectangle-16-Copy-3" fill="url(#linearGradient-4)" opacity="0.0260416667" mask="url(#mask-2)" transform="translate(0.500000, 275.000000) scale(-1, 1) translate(-0.500000, -275.000000) "></path>
                    <rect id="Rectangle-16-Copy" fill="url(#linearGradient-5)" opacity="0.110620471" mask="url(#mask-2)" x="446" y="416" width="1235" height="24" rx="12"></rect>
                </g>
            </g>
        </g>
    </g>
</svg>