<?xml version="1.0" encoding="UTF-8"?>
<svg width="1358px" height="264px" viewBox="0 0 1358 264" version="1.1" xmlns="http://www.w3.org/2000/svg" xmlns:xlink="http://www.w3.org/1999/xlink">
    <!-- Generator: Sketch 48.2 (47327) - http://www.bohemiancoding.com/sketch -->
    <title>Rectangle 16 Copy 4 + Rectangle 16 Copy 7 + Rectangle 16 Copy 8 Mask</title>
    <desc>Created with Sketch.</desc>
    <defs>
        <rect id="path-1" x="0" y="0" width="1360" height="264"></rect>
        <linearGradient x1="78.4242156%" y1="-6.03474937%" x2="-20.1075038%" y2="-6.03474937%" id="linearGradient-3">
            <stop stop-color="#D4D4D4" offset="0%"></stop>
            <stop stop-color="#F9F9F9" offset="100%"></stop>
        </linearGradient>
    </defs>
    <g id="home-page_03-copy" stroke="none" stroke-width="1" fill="none" fill-rule="evenodd" transform="translate(-2.000000, -4200.000000)">
        <g id="Rectangle-16-Copy-4-+-Rectangle-16-Copy-7-+-Rectangle-16-Copy-8-Mask" transform="translate(2.000000, 4200.000000)">
            <mask id="mask-2" fill="white">
                <use xlink:href="#path-1"></use>
            </mask>
            <use id="Mask" fill="#F9F9F9" xlink:href="#path-1"></use>
            <path d="M-69,0 L468.039062,0 C474.666479,6.35321796e-14 480.039062,5.372583 480.039062,12 L480.039062,12 C480.039062,18.627417 474.666479,24 468.039062,24 L-69,24 C-75.627417,24 -81,18.627417 -81,12 L-81,12 C-81,5.372583 -75.627417,1.21743675e-15 -69,0 Z" id="Rectangle-16-Copy-4" fill="url(#linearGradient-3)" opacity="0.185461957" mask="url(#mask-2)"></path>
            <path d="M1123,56 L1644.03906,56 C1650.66648,56 1656.03906,61.372583 1656.03906,68 L1656.03906,68 C1656.03906,74.627417 1650.66648,80 1644.03906,80 L1123,80 C1116.37258,80 1111,74.627417 1111,68 L1111,68 C1111,61.372583 1116.37258,56 1123,56 Z" id="Rectangle-16-Copy-7" fill="url(#linearGradient-3)" opacity="0.185461957" mask="url(#mask-2)"></path>
            <path d="M827,233 L1348.03906,233 C1354.66648,233 1360.03906,238.372583 1360.03906,245 L1360.03906,245 C1360.03906,251.627417 1354.66648,257 1348.03906,257 L827,257 C820.372583,257 815,251.627417 815,245 L815,245 C815,238.372583 820.372583,233 827,233 Z" id="Rectangle-16-Copy-8" fill="url(#linearGradient-3)" opacity="0.185461957" mask="url(#mask-2)"></path>
        </g>
    </g>
</svg>