<?xml version="1.0" encoding="UTF-8"?>
<svg width="1353px" height="110px" viewBox="0 0 1353 110" version="1.1" xmlns="http://www.w3.org/2000/svg" xmlns:xlink="http://www.w3.org/1999/xlink">
    <!-- Generator: Sketch 48.2 (47327) - http://www.bohemiancoding.com/sketch -->
    <title>top</title>
    <desc>Created with Sketch.</desc>
    <defs>
        <rect id="path-1" x="0" y="0" width="1360" height="720" rx="4"></rect>
        <linearGradient x1="78.4242156%" y1="-6.03474937%" x2="1.70834%" y2="-6.03474937%" id="linearGradient-3">
            <stop stop-color="#DB2DAA" offset="0%"></stop>
            <stop stop-color="#FFD500" offset="100%"></stop>
        </linearGradient>
    </defs>
    <g id="home-page_03" stroke="none" stroke-width="1" fill="none" fill-rule="evenodd" transform="translate(-7.000000, -2352.000000)">
        <g id="Group-19" transform="translate(0.000000, 2352.000000)">
            <g id="top">
                <mask id="mask-2" fill="white">
                    <use xlink:href="#path-1"></use>
                </mask>
                <use id="Mask" fill="#FFD500" xlink:href="#path-1"></use>
                <path d="M1005,86 L1526.03906,86 C1532.66648,86 1538.03906,91.372583 1538.03906,98 L1538.03906,98 C1538.03906,104.627417 1532.66648,110 1526.03906,110 L1005,110 C998.372583,110 993,104.627417 993,98 L993,98 C993,91.372583 998.372583,86 1005,86 Z" id="Rectangle-16-Copy-5" fill="url(#linearGradient-3)" opacity="0.0638020833" mask="url(#mask-2)"></path>
                <path d="M19,0 L540.039062,0 C546.666479,-1.21743675e-15 552.039062,5.372583 552.039062,12 L552.039062,12 C552.039062,18.627417 546.666479,24 540.039062,24 L19,24 C12.372583,24 7,18.627417 7,12 L7,12 C7,5.372583 12.372583,1.21743675e-15 19,0 Z" id="Rectangle-16" fill="url(#linearGradient-3)" opacity="0.189254982" mask="url(#mask-2)"></path>
            </g>
        </g>
    </g>
</svg>