<svg width="250" height="80" viewBox="0 0 250 80" xmlns="http://www.w3.org/2000/svg"><title>html-css-js</title><desc>Created with Sketch.</desc><g fill-rule="nonzero" fill="none"><path id="Shape" fill="#E45126" d="M53.675 62.846l-3.675-41.145h40.377l-3.678 41.138-16.535 4.576z"/><path d="M70.188 40.326h-6.689l-.462-5.167h7.151v-5.046h-12.675l.121 1.354 1.242 13.906h11.312v-5.046zm0 18.356l-.023.007-10.354-2.87-.708-7.923h5.074l.36 4.024 5.629 1.518.005-.001v-.001l5.638-1.519.587-6.544h-6.224v-5.046h11.75l-.123 1.355-1.188 13.285-.076.853-10.345 2.862zm-.018-28.569h12.662l-.121 1.354-.23 2.558-.101 1.134h-12.21v-5.046z" id="Combined-Shape" fill="#fff"/><path d="M53.757 10.521h2.569v2.534h2.35v-2.534h2.569v7.673h-2.569v-2.569h-2.35v2.569h-2.569v-7.673zm10.865 2.544h-2.261v-2.544h7.093v2.544h-2.262v5.128h-2.569v-5.128zm5.957-2.544h2.679l1.648 2.696 1.646-2.696h2.679v7.673h-2.558v-3.803l-1.767 2.728h-.044l-1.768-2.728v3.803h-2.514v-7.673zm9.93 0h2.569v5.136h3.612v2.536h-6.182v-7.672z" id="Shape" fill="#E45126"/><path d="M136.853 12.627h-3.351l3.485 3.775v1.797h-7.178v-2.104h3.485l-3.485-3.775v-1.8h7.045v2.107zm-8.467 0h-3.351l3.485 3.775v1.797h-7.178v-2.104h3.485l-3.485-3.775v-1.8h7.045v2.107zm-8.385.086h-3.616v3.295h3.616v2.192h-6.186v-7.679h6.186v2.192zM108.888 62.85l-3.675-41.145h40.377l-3.678 41.138-16.535 4.576z" id="Shape" fill="#1673B6"/><path d="M136.718 44.962l-.865 9.653-.076.853-10.345 2.862v.001l-.023.007-10.354-2.87-.708-7.923h5.074l.36 4.024 5.63 1.518.004-.001v-.001l5.638-1.519.59-6.544h-6.24v.001h-5.558l-.101-1.134-.23-2.558-.121-1.354h6.011v-.001h6.689l.462-5.167h-19.343l-.101-1.134-.23-2.558-.121-1.354h25.32l-.121 1.354-1.237 13.847z" id="Combined-Shape" fill="#fff"/><path id="Shape" fill="#E4A227" d="M164.125 62.953l-3.675-41.145h40.377l-3.678 41.138-16.535 4.576zM187.824 12.72h-3.351l3.485 3.775v1.797h-7.178v-2.104h3.485l-3.485-3.775v-1.8h7.045zM179.501 10.617v7.672h-6.182v-2.536h3.613v-5.136z"/><path d="M180.574 53.496l-5.628-1.518-.36-4.024h-5.074l.708 7.923 10.36 2.867-.006-5.248zm.006-8.068h-11.051l.123-1.355 1.188-13.285.374-3.72h10.064l.014 5.248-5.508.146-.73 7.92h6.224v.002h11.051l-.123 1.355-1.188 13.285-.076.853-10.363 2.867-.006-5.248 5.643-1.521.587-6.545h-6.224v-.002z" fill="#fff"/><path d="M181.244 32.323l.022-.006 5.521.332.468 5.21h5.074l-.884-9.75-10.178-1.043-.023.007v5.25zm10.564.015l-.433-5.27h-10.67v5.27h11.103z" fill="#fff"/></g></svg>