<svg width="250" height="80" viewBox="0 0 250 80" xmlns="http://www.w3.org/2000/svg"><title>node</title><desc>Created with Sketch.</desc><g fill-rule="nonzero" fill="none"><path d="M126.023 6c-.149.002-.301.038-.434.116-.267.156-.434.443-.434.752v22.118c0 .217-.101.411-.29.52-.189.109-.419.109-.608 0l-3.619-2.082c-.539-.31-1.198-.31-1.737 0l-14.446 8.327c-.54.311-.868.91-.868 1.532v16.653c0 .622.329 1.192.868 1.503l14.446 8.327c.54.311 1.197.311 1.737 0l14.446-8.327c.54-.312.868-.881.868-1.503v-41.518c0-.632-.345-1.224-.897-1.532l-8.598-4.799c-.135-.075-.285-.088-.434-.087zm-92.928 20.788c-.275.011-.534.059-.782.202l-14.446 8.327c-.538.311-.868.877-.868 1.503l.029 22.349c0 .311.161.6.434.752.268.16.601.16.868 0l8.569-4.915c.543-.322.897-.882.897-1.503v-10.437c0-.623.328-1.194.868-1.503l3.648-2.111c.272-.157.565-.231.868-.231.298 0 .604.074.868.231l3.648 2.111c.54.31.868.881.868 1.503v10.437c0 .621.358 1.185.897 1.503l8.569 4.915c.269.16.601.16.868 0 .266-.152.434-.441.434-.752l.029-22.349c0-.627-.326-1.193-.868-1.503l-14.446-8.327c-.244-.143-.504-.191-.782-.202h-.174.001zm129.809.202c-.302 0-.597.076-.868.231l-14.446 8.327c-.54.311-.868.881-.868 1.503v16.653c0 .626.353 1.194.897 1.503l14.33 8.153c.529.302 1.175.324 1.708.029l8.685-4.828c.276-.153.462-.438.463-.752.002-.314-.162-.596-.434-.752l-14.533-8.327c-.272-.155-.463-.469-.463-.781v-5.204c0-.311.194-.596.463-.752l4.516-2.602c.269-.155.599-.155.868 0l4.516 2.602c.27.155.434.441.434.752v4.106c0 .311.164.596.434.752.271.156.599.156.868 0l8.656-5.031c.537-.312.868-.883.868-1.503v-4.019c0-.621-.33-1.192-.868-1.503l-14.359-8.327c-.27-.156-.567-.231-.868-.231h.001zm-43.193 12.432c.075 0 .164.019.232.057l4.95 2.862c.134.078.232.221.232.376v5.725c0 .155-.096.299-.232.376l-4.95 2.862c-.135.077-.299.077-.434 0l-4.95-2.862c-.135-.078-.232-.221-.232-.376v-5.725c0-.155.097-.298.232-.376l4.95-2.862c.068-.039.127-.057.203-.057z" fill="#404137"/><path d="M206.322 26.715c-.502 0-.99.104-1.421.349l-13.658 7.904c-.884.51-1.421 1.474-1.421 2.499v15.78c0 1.025.537 1.988 1.421 2.499l3.567 2.063c1.733.856 2.372.843 3.161.843 2.566 0 4.031-1.56 4.031-4.272v-15.576c0-.22-.19-.378-.406-.378h-1.711c-.219 0-.406.158-.406.378v15.576c0 1.202-1.249 2.411-3.277 1.395l-3.712-2.179c-.131-.071-.232-.198-.232-.349v-15.78c0-.15.1-.302.232-.378l13.629-7.875c.128-.073.279-.073.406 0l13.629 7.875c.13.078.232.223.232.378v15.78c0 .151-.075.305-.203.378l-13.658 7.875c-.117.07-.278.07-.406 0l-3.509-2.092c-.104-.061-.247-.057-.348 0-.969.55-1.15.614-2.059.93-.224.078-.564.2.116.581l4.582 2.702c.436.253.922.378 1.421.378.506 0 .985-.125 1.421-.378l13.658-7.875c.884-.515 1.421-1.474 1.421-2.499v-15.78c0-1.025-.537-1.987-1.421-2.499l-13.658-7.904c-.428-.245-.919-.349-1.421-.349zm-129.912.32c-.301 0-.6.076-.87.232l-14.47 8.34c-.541.312-.87.915-.87 1.54v16.738c0 .626.329 1.198.87 1.511l14.47 8.369c.541.313 1.199.313 1.74 0l14.47-8.369c.54-.313.87-.885.87-1.511v-16.738c0-.626-.329-1.228-.87-1.54l-14.47-8.34c-.27-.156-.568-.232-.87-.232zm150.182.087v.407h1.131v2.993h.464v-2.993h1.16v-.407h-2.755zm3.161 0v3.4h.435v-2.8770000000000002l.957 2.877h.464l.986-2.877-.029.523v2.354h.435v-3.4h-.638l-.986 2.877-.957-2.877h-.667zm-19.777 10.868c-3.889 0-6.206 1.659-6.206 4.417 0 2.992 2.299 3.814 6.031 4.185 4.466.438 4.814 1.095 4.814 1.976 0 1.528-1.216 2.179-4.089 2.179-3.61 0-4.403-.903-4.669-2.702-.031-.193-.18-.349-.377-.349h-1.769c-.218 0-.406.188-.406.407 0 2.303 1.25 5.027 7.221 5.027 4.322 0 6.815-1.7 6.815-4.679 0-2.953-2.014-3.745-6.206-4.301-4.236-.562-4.64-.837-4.64-1.831 0-.821.342-1.918 3.48-1.918 2.802 0 3.838.606 4.263 2.499.037.178.194.32.377.32h1.769c.109 0 .215-.067.29-.145.074-.084.127-.178.116-.29-.274-3.261-2.444-4.795-6.815-4.795zm-47.035 3.981l-.174.029-2.784 1.627c-.104.059-.174.17-.174.291v3.197c0 .12.07.231.174.291l2.784 1.598c.104.06.216.06.319 0l2.784-1.598c.103-.059.174-.17.174-.291v-3.197c0-.12-.071-.231-.174-.291l-2.784-1.627-.145-.029z" fill="#83CD29"/></g></svg>