<svg width="250" height="80" viewBox="0 0 250 80" xmlns="http://www.w3.org/2000/svg"><title>react</title><desc>Created with Sketch.</desc><g fill="none"><g transform="translate(14 14)"><ellipse fill="#00D8FF" fill-rule="nonzero" cx="32.306" cy="28.396" rx="6.013" ry="5.995"/><path d="M32.306 16.207c8.073 0 15.573 1.155 21.228 3.096 6.813 2.338 11.002 5.883 11.002 9.093 0 3.345-4.44 7.11-11.756 9.527-5.532 1.827-12.811 2.781-20.474 2.781-7.857 0-15.298-.895-20.89-2.801-7.077-2.412-11.34-6.226-11.34-9.507 0-3.184 4-6.701 10.717-9.036 5.676-1.973 13.361-3.153 21.513-3.153zm-10.643 6.129c4.033-6.972 8.783-12.873 13.295-16.787 5.436-4.716 10.608-6.563 13.397-4.96 2.906 1.671 3.96 7.387 2.405 14.913-1.176 5.69-3.983 12.453-7.812 19.072-3.925 6.786-8.42 12.765-12.87 16.643-5.631 4.907-11.075 6.683-13.926 5.044-2.766-1.591-3.824-6.802-2.497-13.77 1.121-5.888 3.935-13.114 8.008-20.155zm.01 12.256c-4.045-6.966-6.8-14.015-7.948-19.867-1.384-7.05-.405-12.441 2.381-14.049 2.903-1.676 8.397.268 14.16 5.37 4.358 3.857 8.832 9.66 12.672 16.272 3.937 6.779 6.887 13.648 8.035 19.428 1.452 7.315.277 12.904-2.571 14.548-2.764 1.595-7.821-.094-13.213-4.72-4.556-3.909-9.431-9.948-13.515-16.982z" id="Shape" stroke="#00D8FF" stroke-width="2.888"/></g><path d="M128.145 62.217l-10.283-15.677c5.199-.461 9.883-4.265 9.883-11.181 0-7.089-4.97-11.584-11.939-11.584h-15.31v38.442h4.742v-15.273h7.598l9.712 15.273h5.598zm-12.911-19.48h-9.997v-14.697h9.997c4.513 0 7.598 2.997 7.598 7.32s-3.085 7.377-7.598 7.377zm30.563 20.172c4.513 0 8.226-1.498 10.968-4.265l-2.057-2.824c-2.171 2.248-5.37 3.516-8.512 3.516-5.941 0-9.597-4.38-9.94-9.625h22.336v-1.095c0-8.357-4.913-14.927-13.253-14.927-7.883 0-13.596 6.513-13.596 14.581 0 8.703 5.884 14.639 14.053 14.639zm8.569-16.368h-18.109c.229-4.265 3.142-9.279 9.026-9.279 6.284 0 9.026 5.129 9.083 9.279zm32.676 15.677v-19.135c0-6.743-4.856-9.394-10.683-9.394-4.513 0-8.055 1.498-11.025 4.611l1.999 2.997c2.456-2.651 5.141-3.861 8.455-3.861 3.999 0 6.969 2.132 6.969 5.879v5.014c-2.228-2.594-5.37-3.804-9.14-3.804-4.684 0-9.654 2.939-9.654 9.164 0 6.052 4.97 9.221 9.654 9.221 3.713 0 6.855-1.326 9.14-3.861v3.17h4.284zm-11.882-2.421c-3.999 0-6.798-2.536-6.798-6.052 0-3.573 2.799-6.109 6.798-6.109 3.028 0 5.941 1.153 7.598 3.458v5.245c-1.657 2.305-4.57 3.458-7.598 3.458zm32.619 3.112c5.027 0 7.998-2.075 10.111-4.841l-2.856-2.651c-1.828 2.478-4.17 3.631-7.027 3.631-5.884 0-9.54-4.611-9.54-10.778 0-6.167 3.656-10.72 9.54-10.72 2.856 0 5.199 1.095 7.027 3.631l2.856-2.651c-2.114-2.766-5.084-4.841-10.111-4.841-8.226 0-13.767 6.34-13.767 14.581 0 8.299 5.541 14.639 13.767 14.639zm23.079 0c2.514 0 4.056-.749 5.141-1.787l-1.257-3.228c-.571.634-1.714 1.153-2.913 1.153-1.885 0-2.799-1.498-2.799-3.573v-17.29h5.598v-3.804h-5.598v-7.608h-4.284v7.608h-4.57v3.804h4.57v18.212c0 4.15 2.057 6.513 6.113 6.513z" fill="#00D8FF" fill-rule="nonzero"/></g></svg>