<svg width="250" height="80" viewBox="0 0 250 80" xmlns="http://www.w3.org/2000/svg"><title>swift</title><desc>Created with Sketch.</desc><g fill-rule="nonzero" fill="none"><path d="M87.654 29.325c0-1.083-.107-2.275-.322-3.358-.215-1.083-.537-2.167-1.073-3.25-.537-.975-1.18-1.95-1.932-2.708-.751-.758-1.717-1.517-2.683-1.95-.966-.542-2.039-.867-3.112-1.083-1.073-.217-2.254-.217-3.327-.325h-26.507c-.859 0-1.717.108-2.468.217-.859.108-1.61.325-2.361.65l-.751.325c-.751.433-1.395.867-2.039 1.408l-.644.542c-.751.758-1.502 1.733-1.932 2.708-.537.975-.859 2.058-1.073 3.25-.215 1.083-.215 2.275-.322 3.358v25.892c0 1.083.107 2.275.322 3.358.215 1.083.537 2.167 1.073 3.25.537.975 1.18 1.95 1.932 2.708.751.758 1.717 1.517 2.683 1.95.966.542 2.039.867 3.112 1.083 1.073.217 2.254.217 3.327.325h25.649c1.073 0 2.254-.108 3.327-.325 1.073-.217 2.146-.542 3.112-1.083.966-.542 1.932-1.192 2.683-1.95.751-.758 1.502-1.733 1.932-2.708.537-.975.859-2.058 1.073-3.25.215-1.083.215-2.275.322-3.358v-25.675z" fill="#F05138"/><path d="M70.882 56.099c-4.504 2.627-10.696 2.897-16.926.201-5.044-2.167-9.229-5.958-11.912-10.292 1.288 1.083 2.79 1.95 4.4 2.708 6.434 3.044 12.866 2.836 17.392.008l-.006-.008c-6.439-4.983-11.912-11.483-15.99-16.792-.859-.867-1.502-1.95-2.146-2.925 4.937 4.55 12.771 10.292 15.561 11.917-5.902-6.283-11.161-14.083-10.946-13.867 9.337 9.533 18.029 14.95 18.029 14.95.289.164.51.3.689.421.188-.483.352-.985.492-1.505 1.502-5.525-.215-11.808-3.971-17.008 8.693 5.308 13.844 15.275 11.698 23.617l-.182.665.075.093c4.293 5.417 3.112 11.158 2.576 10.075-2.329-4.599-6.64-3.193-8.83-2.26z" fill="#FEFEFE"/><path d="M201.732 34.417h-12.449v-1.625c0-1.3.107-2.6.215-3.9.107-1.3.429-2.383.859-3.25.429-.867 1.073-1.625 1.824-2.167.859-.542 1.932-.867 3.22-.867.859 0 1.502.108 2.039.217.537.217.966.325 1.395.542l.859-2.167c-.429-.217-.966-.433-1.717-.65-.644-.217-1.502-.325-2.361-.325-1.717 0-3.112.325-4.293.975-1.18.65-2.146 1.625-2.898 2.708-.644 1.083-1.18 2.492-1.502 4.008-.322 1.517-.429 3.25-.429 4.983v1.625h-4.078v2.167h4.078v26.217h2.79v-26.325h12.556-.107v17.983c0 1.3.107 2.492.322 3.575.107 1.083.537 2.058.966 2.817.429.758 1.073 1.408 1.932 1.842.859.433 1.932.65 3.22.65 1.61 0 2.79-.217 3.756-.65l-.322-2.167c-.322.108-.751.217-1.288.325-.537.108-1.073.108-1.824.108-1.502 0-2.468-.542-3.112-1.517-.537-.975-.859-2.492-.859-4.333v-18.525h7.834v-2.167h-7.834v-6.283l-2.79.867v5.308zm.107 0h.107-.107zm.107 2.167h-.107.107zm-97.444 21.992c1.073.758 2.361 1.408 3.863 1.842 1.395.433 3.005.758 4.615.758 2.898 0 5.259-.758 6.868-2.275 1.61-1.517 2.468-3.575 2.468-5.958 0-2.275-.644-4.117-1.824-5.525-1.18-1.408-3.22-2.708-6.01-3.9-3.005-1.083-5.473-2.492-7.298-4.225-1.824-1.733-2.683-4.008-2.683-6.717 0-1.408.322-2.817.859-4.008.537-1.192 1.395-2.275 2.361-3.142.966-.867 2.146-1.625 3.541-2.058 1.395-.542 2.898-.758 4.507-.758 1.824 0 3.434.217 4.722.542 1.288.433 2.254.758 2.898 1.192l-1.073 2.383c-.537-.433-1.395-.758-2.576-1.192-1.18-.433-2.576-.65-4.185-.65-1.61 0-2.898.217-3.971.65-1.073.433-1.932 1.083-2.576 1.733-.644.758-1.073 1.517-1.395 2.383-.322.867-.429 1.625-.429 2.492 0 2.167.644 4.008 1.932 5.308 1.288 1.3 3.327 2.492 6.117 3.683 1.61.65 3.005 1.408 4.185 2.167 1.18.758 2.254 1.625 3.112 2.492.859.867 1.395 1.95 1.824 3.033.429 1.192.644 2.492.644 3.9s-.215 2.817-.751 4.225c-.537 1.3-1.288 2.492-2.361 3.467-1.073.975-2.361 1.842-3.863 2.383-1.502.542-3.327.867-5.366.867-.859 0-1.717-.108-2.576-.217-.859-.108-1.717-.325-2.576-.542-.859-.217-1.61-.542-2.361-.867-.751-.325-1.395-.65-1.824-.975l1.18-2.492zm25.756-24.05l4.615 16.142c.429 1.625.859 3.25 1.288 4.658.429 1.408.751 2.925 1.073 4.225h.215c.322-1.3.751-2.708 1.18-4.225.429-1.517.966-3.033 1.502-4.658l5.473-16.142h2.576l5.259 15.925c.537 1.733 1.073 3.358 1.502 4.875.429 1.517.859 2.925 1.18 4.225h.215c.322-1.408.644-2.817 1.073-4.225.429-1.408.859-3.033 1.395-4.767l4.937-16.033h2.79l-9.229 28.383h-2.254l-5.259-15.817c-.537-1.733-1.073-3.358-1.61-4.875-.429-1.517-.859-3.142-1.18-4.767h-.107c-.429 1.733-.859 3.358-1.395 4.875-.537 1.517-1.073 3.142-1.61 4.875l-5.473 15.708h-2.361l-8.585-28.383h2.79zm42.176 0h2.79v28.383h-2.79v-28.383zm-1.073-8.667c0-.65.215-1.192.644-1.733.429-.433.966-.758 1.717-.758.644 0 1.18.217 1.717.758.429.433.751 1.083.751 1.733 0 .65-.215 1.192-.751 1.733-.429.433-1.073.65-1.717.65-.644 0-1.18-.217-1.717-.65-.429-.542-.644-1.083-.644-1.733z" fill="#221F20"/></g></svg>